<mxfile host="app.diagrams.net" modified="2023-04-03T19:09:58.054Z" agent="Mozilla/5.0 (Windows NT 10.0; Win64; x64) AppleWebKit/537.36 (KHTML, like Gecko) Chrome/111.0.0.0 Safari/537.36" etag="zoDDRz6Cjv2VjJ8wfqWq" version="21.1.1" type="github" pages="6">
  <diagram name="Страница 1" id="8a4zU3oj1k-wEACCgTFj">
    <mxGraphModel dx="714" dy="786" grid="1" gridSize="10" guides="1" tooltips="1" connect="1" arrows="1" fold="1" page="1" pageScale="1" pageWidth="827" pageHeight="1169" math="0" shadow="0">
      <root>
        <mxCell id="0" />
        <mxCell id="1" parent="0" />
        <mxCell id="rdgNrElGMLp600ZAKfWI-2" value="Администратор" style="shape=umlActor;verticalLabelPosition=bottom;verticalAlign=top;html=1;outlineConnect=0;points=[[0,0.33,0,0,0],[0,1,0,0,0],[0.27,0.1,0,0,0],[0.5,0,0,0,0],[0.5,0.5,0,0,0],[0.5,1,0,0,0],[0.77,0.1,0,0,0],[1,0.33,0,0,0],[1,1,0,0,0]];" parent="1" vertex="1">
          <mxGeometry x="850" y="160" width="30" height="60" as="geometry" />
        </mxCell>
        <mxCell id="rdgNrElGMLp600ZAKfWI-3" value="Пользователь&lt;br&gt;" style="shape=umlActor;verticalLabelPosition=bottom;verticalAlign=top;html=1;outlineConnect=0;" parent="1" vertex="1">
          <mxGeometry x="580" y="150" width="30" height="60" as="geometry" />
        </mxCell>
        <mxCell id="rdgNrElGMLp600ZAKfWI-4" value="Добавить&amp;nbsp;товар в систему" style="ellipse;whiteSpace=wrap;html=1;" parent="1" vertex="1">
          <mxGeometry x="980" y="100" width="180" height="40" as="geometry" />
        </mxCell>
        <mxCell id="rdgNrElGMLp600ZAKfWI-5" value="Удалить товар из системы" style="ellipse;whiteSpace=wrap;html=1;" parent="1" vertex="1">
          <mxGeometry x="980" y="150" width="180" height="40" as="geometry" />
        </mxCell>
        <mxCell id="rdgNrElGMLp600ZAKfWI-6" value="Редактировать страницу &lt;br&gt;товара" style="ellipse;whiteSpace=wrap;html=1;" parent="1" vertex="1">
          <mxGeometry x="980" y="200" width="180" height="40" as="geometry" />
        </mxCell>
        <mxCell id="rdgNrElGMLp600ZAKfWI-7" value="Войти в систему" style="ellipse;whiteSpace=wrap;html=1;" parent="1" vertex="1">
          <mxGeometry x="640" y="135" width="180" height="40" as="geometry" />
        </mxCell>
        <mxCell id="rdgNrElGMLp600ZAKfWI-8" value="Модерация отзывов на странице товаров" style="ellipse;whiteSpace=wrap;html=1;" parent="1" vertex="1">
          <mxGeometry x="1230" y="110" width="100" height="90" as="geometry" />
        </mxCell>
        <mxCell id="rdgNrElGMLp600ZAKfWI-10" value="Зарегетрироваться в системе" style="ellipse;whiteSpace=wrap;html=1;" parent="1" vertex="1">
          <mxGeometry x="640" width="180" height="40" as="geometry" />
        </mxCell>
        <mxCell id="rdgNrElGMLp600ZAKfWI-11" value="Добавить товар в корзину" style="ellipse;whiteSpace=wrap;html=1;" parent="1" vertex="1">
          <mxGeometry y="270" width="180" height="40" as="geometry" />
        </mxCell>
        <mxCell id="rdgNrElGMLp600ZAKfWI-12" value="Посмотреть каталога" style="ellipse;whiteSpace=wrap;html=1;" parent="1" vertex="1">
          <mxGeometry x="270" y="107.5" width="180" height="40" as="geometry" />
        </mxCell>
        <mxCell id="rdgNrElGMLp600ZAKfWI-13" value="Посмотреть избранное" style="ellipse;whiteSpace=wrap;html=1;" parent="1" vertex="1">
          <mxGeometry x="270" y="157.5" width="180" height="40" as="geometry" />
        </mxCell>
        <mxCell id="rdgNrElGMLp600ZAKfWI-14" value="Посмотреть страничку товара" style="ellipse;whiteSpace=wrap;html=1;" parent="1" vertex="1">
          <mxGeometry x="270" y="207.5" width="180" height="40" as="geometry" />
        </mxCell>
        <mxCell id="rdgNrElGMLp600ZAKfWI-15" value="Проверить личный кабинет" style="ellipse;whiteSpace=wrap;html=1;" parent="1" vertex="1">
          <mxGeometry x="270" y="60" width="180" height="40" as="geometry" />
        </mxCell>
        <mxCell id="rdgNrElGMLp600ZAKfWI-16" value="Редактировать новостную ленту" style="ellipse;whiteSpace=wrap;html=1;" parent="1" vertex="1">
          <mxGeometry x="980" y="270" width="180" height="40" as="geometry" />
        </mxCell>
        <mxCell id="rdgNrElGMLp600ZAKfWI-30" value="Получить данные &lt;br&gt;для доступа к кабинету" style="ellipse;whiteSpace=wrap;html=1;" parent="1" vertex="1">
          <mxGeometry x="640" y="270" width="180" height="40" as="geometry" />
        </mxCell>
        <mxCell id="rdgNrElGMLp600ZAKfWI-32" value="" style="endArrow=none;html=1;rounded=0;exitX=1;exitY=0.3333333333333333;exitDx=0;exitDy=0;exitPerimeter=0;entryX=0;entryY=1;entryDx=0;entryDy=0;" parent="1" source="rdgNrElGMLp600ZAKfWI-3" target="rdgNrElGMLp600ZAKfWI-7" edge="1">
          <mxGeometry width="50" height="50" relative="1" as="geometry">
            <mxPoint x="750" y="170" as="sourcePoint" />
            <mxPoint x="800" y="120" as="targetPoint" />
          </mxGeometry>
        </mxCell>
        <mxCell id="rdgNrElGMLp600ZAKfWI-34" value="" style="endArrow=none;html=1;rounded=0;exitX=0;exitY=0.3333333333333333;exitDx=0;exitDy=0;exitPerimeter=0;entryX=1;entryY=0.5;entryDx=0;entryDy=0;" parent="1" source="rdgNrElGMLp600ZAKfWI-2" target="rdgNrElGMLp600ZAKfWI-7" edge="1">
          <mxGeometry width="50" height="50" relative="1" as="geometry">
            <mxPoint x="630" y="190" as="sourcePoint" />
            <mxPoint x="760" y="130" as="targetPoint" />
          </mxGeometry>
        </mxCell>
        <mxCell id="rdgNrElGMLp600ZAKfWI-35" value="&amp;lt;&amp;lt;extend&amp;gt;&amp;gt;" style="html=1;verticalAlign=bottom;labelBackgroundColor=none;endArrow=open;endFill=0;dashed=1;rounded=0;exitX=0.5;exitY=1;exitDx=0;exitDy=0;entryX=0.5;entryY=0;entryDx=0;entryDy=0;" parent="1" source="rdgNrElGMLp600ZAKfWI-10" target="rdgNrElGMLp600ZAKfWI-7" edge="1">
          <mxGeometry x="0.1265" y="-2" width="160" relative="1" as="geometry">
            <mxPoint x="770" y="100" as="sourcePoint" />
            <mxPoint x="850" y="30" as="targetPoint" />
            <mxPoint as="offset" />
          </mxGeometry>
        </mxCell>
        <mxCell id="rdgNrElGMLp600ZAKfWI-36" value="" style="endArrow=none;html=1;rounded=0;exitX=0;exitY=0.33;exitDx=0;exitDy=0;exitPerimeter=0;entryX=0.5;entryY=0;entryDx=0;entryDy=0;" parent="1" source="rdgNrElGMLp600ZAKfWI-2" target="rdgNrElGMLp600ZAKfWI-30" edge="1">
          <mxGeometry width="50" height="50" relative="1" as="geometry">
            <mxPoint x="460" y="210" as="sourcePoint" />
            <mxPoint x="590" y="150" as="targetPoint" />
          </mxGeometry>
        </mxCell>
        <mxCell id="rdgNrElGMLp600ZAKfWI-37" value="" style="endArrow=none;html=1;rounded=0;exitX=1;exitY=0.3333333333333333;exitDx=0;exitDy=0;exitPerimeter=0;entryX=0.5;entryY=1;entryDx=0;entryDy=0;" parent="1" source="rdgNrElGMLp600ZAKfWI-3" target="rdgNrElGMLp600ZAKfWI-10" edge="1">
          <mxGeometry width="50" height="50" relative="1" as="geometry">
            <mxPoint x="650" y="210" as="sourcePoint" />
            <mxPoint x="780" y="150" as="targetPoint" />
          </mxGeometry>
        </mxCell>
        <mxCell id="rdgNrElGMLp600ZAKfWI-41" value="" style="endArrow=none;html=1;rounded=0;exitX=1;exitY=0.3333333333333333;exitDx=0;exitDy=0;exitPerimeter=0;entryX=0;entryY=0.5;entryDx=0;entryDy=0;" parent="1" source="rdgNrElGMLp600ZAKfWI-2" target="rdgNrElGMLp600ZAKfWI-4" edge="1">
          <mxGeometry width="50" height="50" relative="1" as="geometry">
            <mxPoint x="480" y="230" as="sourcePoint" />
            <mxPoint x="610" y="170" as="targetPoint" />
          </mxGeometry>
        </mxCell>
        <mxCell id="rdgNrElGMLp600ZAKfWI-43" value="" style="endArrow=none;html=1;rounded=0;entryX=0;entryY=0.5;entryDx=0;entryDy=0;" parent="1" target="rdgNrElGMLp600ZAKfWI-16" edge="1">
          <mxGeometry width="50" height="50" relative="1" as="geometry">
            <mxPoint x="880" y="180" as="sourcePoint" />
            <mxPoint x="1020" y="200" as="targetPoint" />
          </mxGeometry>
        </mxCell>
        <mxCell id="rdgNrElGMLp600ZAKfWI-44" value="" style="endArrow=none;html=1;rounded=0;entryX=0;entryY=0.5;entryDx=0;entryDy=0;" parent="1" target="rdgNrElGMLp600ZAKfWI-6" edge="1">
          <mxGeometry width="50" height="50" relative="1" as="geometry">
            <mxPoint x="880" y="180" as="sourcePoint" />
            <mxPoint x="1030" y="210" as="targetPoint" />
          </mxGeometry>
        </mxCell>
        <mxCell id="rdgNrElGMLp600ZAKfWI-45" value="" style="endArrow=none;html=1;rounded=0;entryX=0;entryY=0.5;entryDx=0;entryDy=0;" parent="1" target="rdgNrElGMLp600ZAKfWI-5" edge="1">
          <mxGeometry width="50" height="50" relative="1" as="geometry">
            <mxPoint x="880" y="180" as="sourcePoint" />
            <mxPoint x="1040" y="220" as="targetPoint" />
          </mxGeometry>
        </mxCell>
        <mxCell id="rdgNrElGMLp600ZAKfWI-47" value="Добавить информацию о скидках" style="ellipse;whiteSpace=wrap;html=1;" parent="1" vertex="1">
          <mxGeometry x="990" y="362.5" width="80" height="70" as="geometry" />
        </mxCell>
        <mxCell id="rdgNrElGMLp600ZAKfWI-48" value="Добавить информацию об акциях" style="ellipse;whiteSpace=wrap;html=1;" parent="1" vertex="1">
          <mxGeometry x="1090" y="360" width="80" height="75" as="geometry" />
        </mxCell>
        <mxCell id="rdgNrElGMLp600ZAKfWI-49" value="&amp;lt;&amp;lt;include&amp;gt;&amp;gt;" style="html=1;verticalAlign=bottom;labelBackgroundColor=none;endArrow=open;endFill=0;dashed=1;rounded=0;strokeColor=default;fontFamily=Helvetica;fontSize=11;fontColor=default;shape=connector;exitX=0.5;exitY=0;exitDx=0;exitDy=0;entryX=0.5;entryY=1;entryDx=0;entryDy=0;" parent="1" source="rdgNrElGMLp600ZAKfWI-47" target="rdgNrElGMLp600ZAKfWI-16" edge="1">
          <mxGeometry x="-0.1429" width="160" relative="1" as="geometry">
            <mxPoint x="1200" y="390" as="sourcePoint" />
            <mxPoint x="1360" y="390" as="targetPoint" />
            <mxPoint as="offset" />
          </mxGeometry>
        </mxCell>
        <mxCell id="rdgNrElGMLp600ZAKfWI-51" value="&amp;lt;&amp;lt;include&amp;gt;&amp;gt;" style="html=1;verticalAlign=bottom;labelBackgroundColor=none;endArrow=open;endFill=0;dashed=1;rounded=0;strokeColor=default;fontFamily=Helvetica;fontSize=11;fontColor=default;shape=connector;exitX=0.5;exitY=0;exitDx=0;exitDy=0;entryX=0.5;entryY=1;entryDx=0;entryDy=0;" parent="1" source="rdgNrElGMLp600ZAKfWI-48" target="rdgNrElGMLp600ZAKfWI-16" edge="1">
          <mxGeometry x="-0.5235" y="-2" width="160" relative="1" as="geometry">
            <mxPoint x="1090" y="399.9999999999998" as="sourcePoint" />
            <mxPoint x="1210" y="350" as="targetPoint" />
            <mxPoint as="offset" />
          </mxGeometry>
        </mxCell>
        <mxCell id="rdgNrElGMLp600ZAKfWI-52" value="Изменить фото товара" style="ellipse;whiteSpace=wrap;html=1;" parent="1" vertex="1">
          <mxGeometry x="1280" y="210" width="80" height="75" as="geometry" />
        </mxCell>
        <mxCell id="rdgNrElGMLp600ZAKfWI-53" value="Изменить описание товара" style="ellipse;whiteSpace=wrap;html=1;" parent="1" vertex="1">
          <mxGeometry x="1200" y="250" width="80" height="80" as="geometry" />
        </mxCell>
        <mxCell id="rdgNrElGMLp600ZAKfWI-54" value="&amp;lt;&amp;lt;include&amp;gt;&amp;gt;" style="html=1;verticalAlign=bottom;labelBackgroundColor=none;endArrow=open;endFill=0;dashed=1;rounded=0;strokeColor=default;fontFamily=Helvetica;fontSize=11;fontColor=default;shape=connector;exitX=0;exitY=0.5;exitDx=0;exitDy=0;entryX=1;entryY=0.5;entryDx=0;entryDy=0;" parent="1" source="rdgNrElGMLp600ZAKfWI-8" target="rdgNrElGMLp600ZAKfWI-6" edge="1">
          <mxGeometry width="160" relative="1" as="geometry">
            <mxPoint x="910" y="250" as="sourcePoint" />
            <mxPoint x="1070" y="250" as="targetPoint" />
          </mxGeometry>
        </mxCell>
        <mxCell id="rdgNrElGMLp600ZAKfWI-56" value="&amp;lt;&amp;lt;include&amp;gt;&amp;gt;" style="html=1;verticalAlign=bottom;labelBackgroundColor=none;endArrow=open;endFill=0;dashed=1;rounded=0;strokeColor=default;fontFamily=Helvetica;fontSize=11;fontColor=default;shape=connector;exitX=0;exitY=0.5;exitDx=0;exitDy=0;entryX=1;entryY=0.5;entryDx=0;entryDy=0;" parent="1" source="rdgNrElGMLp600ZAKfWI-52" target="rdgNrElGMLp600ZAKfWI-6" edge="1">
          <mxGeometry width="160" relative="1" as="geometry">
            <mxPoint x="1270" y="200" as="sourcePoint" />
            <mxPoint x="1180" y="230" as="targetPoint" />
          </mxGeometry>
        </mxCell>
        <mxCell id="rdgNrElGMLp600ZAKfWI-57" value="&amp;lt;&amp;lt;include&amp;gt;&amp;gt;" style="html=1;verticalAlign=bottom;labelBackgroundColor=none;endArrow=open;endFill=0;dashed=1;rounded=0;strokeColor=default;fontFamily=Helvetica;fontSize=11;fontColor=default;shape=connector;exitX=0;exitY=0;exitDx=0;exitDy=0;entryX=1;entryY=0.5;entryDx=0;entryDy=0;" parent="1" source="rdgNrElGMLp600ZAKfWI-53" target="rdgNrElGMLp600ZAKfWI-6" edge="1">
          <mxGeometry x="-0.3659" y="5" width="160" relative="1" as="geometry">
            <mxPoint x="1290" y="235" as="sourcePoint" />
            <mxPoint x="1200" y="265" as="targetPoint" />
            <mxPoint as="offset" />
          </mxGeometry>
        </mxCell>
        <mxCell id="rdgNrElGMLp600ZAKfWI-58" value="" style="endArrow=none;html=1;rounded=0;exitX=1;exitY=0.5;exitDx=0;exitDy=0;entryX=0;entryY=0.3333333333333333;entryDx=0;entryDy=0;entryPerimeter=0;" parent="1" source="rdgNrElGMLp600ZAKfWI-15" target="rdgNrElGMLp600ZAKfWI-3" edge="1">
          <mxGeometry width="50" height="50" relative="1" as="geometry">
            <mxPoint x="440" y="100" as="sourcePoint" />
            <mxPoint x="570" y="115" as="targetPoint" />
          </mxGeometry>
        </mxCell>
        <mxCell id="rdgNrElGMLp600ZAKfWI-60" value="" style="endArrow=none;html=1;rounded=0;exitX=1;exitY=0.5;exitDx=0;exitDy=0;entryX=0;entryY=0.3333333333333333;entryDx=0;entryDy=0;entryPerimeter=0;" parent="1" source="rdgNrElGMLp600ZAKfWI-12" target="rdgNrElGMLp600ZAKfWI-3" edge="1">
          <mxGeometry width="50" height="50" relative="1" as="geometry">
            <mxPoint x="640" y="200" as="sourcePoint" />
            <mxPoint x="770" y="215" as="targetPoint" />
          </mxGeometry>
        </mxCell>
        <mxCell id="rdgNrElGMLp600ZAKfWI-61" value="" style="endArrow=none;html=1;rounded=0;exitX=1;exitY=0.5;exitDx=0;exitDy=0;entryX=0;entryY=0.3333333333333333;entryDx=0;entryDy=0;entryPerimeter=0;" parent="1" source="rdgNrElGMLp600ZAKfWI-13" target="rdgNrElGMLp600ZAKfWI-3" edge="1">
          <mxGeometry width="50" height="50" relative="1" as="geometry">
            <mxPoint x="650" y="210" as="sourcePoint" />
            <mxPoint x="580" y="170" as="targetPoint" />
          </mxGeometry>
        </mxCell>
        <mxCell id="rdgNrElGMLp600ZAKfWI-62" value="" style="endArrow=none;html=1;rounded=0;exitX=1;exitY=0.5;exitDx=0;exitDy=0;entryX=0;entryY=0.3333333333333333;entryDx=0;entryDy=0;entryPerimeter=0;" parent="1" source="rdgNrElGMLp600ZAKfWI-14" target="rdgNrElGMLp600ZAKfWI-3" edge="1">
          <mxGeometry width="50" height="50" relative="1" as="geometry">
            <mxPoint x="660" y="220" as="sourcePoint" />
            <mxPoint x="580" y="170" as="targetPoint" />
          </mxGeometry>
        </mxCell>
        <mxCell id="rdgNrElGMLp600ZAKfWI-63" value="Просмотр 3-D модели" style="ellipse;whiteSpace=wrap;html=1;" parent="1" vertex="1">
          <mxGeometry y="197.5" width="180" height="40" as="geometry" />
        </mxCell>
        <mxCell id="rdgNrElGMLp600ZAKfWI-66" value="Посмотреть корзину" style="ellipse;whiteSpace=wrap;html=1;" parent="1" vertex="1">
          <mxGeometry x="270" y="270" width="180" height="40" as="geometry" />
        </mxCell>
        <mxCell id="rdgNrElGMLp600ZAKfWI-67" value="Оформить доставку" style="ellipse;whiteSpace=wrap;html=1;" parent="1" vertex="1">
          <mxGeometry x="270" y="360" width="180" height="40" as="geometry" />
        </mxCell>
        <mxCell id="rdgNrElGMLp600ZAKfWI-71" value="" style="endArrow=none;html=1;rounded=0;exitX=1;exitY=0.5;exitDx=0;exitDy=0;entryX=0;entryY=0.3333333333333333;entryDx=0;entryDy=0;entryPerimeter=0;" parent="1" source="rdgNrElGMLp600ZAKfWI-66" target="rdgNrElGMLp600ZAKfWI-3" edge="1">
          <mxGeometry width="50" height="50" relative="1" as="geometry">
            <mxPoint x="460" y="237.5" as="sourcePoint" />
            <mxPoint x="590" y="180" as="targetPoint" />
          </mxGeometry>
        </mxCell>
        <mxCell id="rdgNrElGMLp600ZAKfWI-72" value="&amp;lt;&amp;lt;extend&amp;gt;&amp;gt;" style="html=1;verticalAlign=bottom;labelBackgroundColor=none;endArrow=open;endFill=0;dashed=1;rounded=0;strokeColor=default;fontFamily=Helvetica;fontSize=11;fontColor=default;shape=connector;exitX=1;exitY=0.5;exitDx=0;exitDy=0;entryX=0;entryY=0.5;entryDx=0;entryDy=0;" parent="1" source="rdgNrElGMLp600ZAKfWI-63" target="rdgNrElGMLp600ZAKfWI-66" edge="1">
          <mxGeometry width="160" relative="1" as="geometry">
            <mxPoint x="190" y="230" as="sourcePoint" />
            <mxPoint x="560" y="320" as="targetPoint" />
          </mxGeometry>
        </mxCell>
        <mxCell id="rdgNrElGMLp600ZAKfWI-73" value="&amp;lt;&amp;lt;extend&amp;gt;&amp;gt;" style="html=1;verticalAlign=bottom;labelBackgroundColor=none;endArrow=open;endFill=0;dashed=1;rounded=0;strokeColor=default;fontFamily=Helvetica;fontSize=11;fontColor=default;shape=connector;exitX=1;exitY=0.5;exitDx=0;exitDy=0;entryX=0;entryY=0.5;entryDx=0;entryDy=0;" parent="1" source="rdgNrElGMLp600ZAKfWI-11" target="rdgNrElGMLp600ZAKfWI-66" edge="1">
          <mxGeometry width="160" relative="1" as="geometry">
            <mxPoint x="190.00000000000023" y="240" as="sourcePoint" />
            <mxPoint x="279.9999999999998" y="300" as="targetPoint" />
          </mxGeometry>
        </mxCell>
        <mxCell id="rdgNrElGMLp600ZAKfWI-74" value="&amp;lt;&amp;lt;extend&amp;gt;&amp;gt;" style="html=1;verticalAlign=bottom;labelBackgroundColor=none;endArrow=open;endFill=0;dashed=1;rounded=0;strokeColor=default;fontFamily=Helvetica;fontSize=11;fontColor=default;shape=connector;exitX=0.5;exitY=0;exitDx=0;exitDy=0;entryX=0.5;entryY=1;entryDx=0;entryDy=0;" parent="1" source="rdgNrElGMLp600ZAKfWI-67" target="rdgNrElGMLp600ZAKfWI-66" edge="1">
          <mxGeometry x="-0.2" width="160" relative="1" as="geometry">
            <mxPoint x="200.00000000000023" y="250" as="sourcePoint" />
            <mxPoint x="289.9999999999998" y="310" as="targetPoint" />
            <mxPoint as="offset" />
          </mxGeometry>
        </mxCell>
        <mxCell id="rdgNrElGMLp600ZAKfWI-75" value="" style="endArrow=none;html=1;rounded=0;exitX=1;exitY=0.5;exitDx=0;exitDy=0;entryX=0;entryY=0.3333333333333333;entryDx=0;entryDy=0;entryPerimeter=0;" parent="1" source="rdgNrElGMLp600ZAKfWI-67" target="rdgNrElGMLp600ZAKfWI-3" edge="1">
          <mxGeometry width="50" height="50" relative="1" as="geometry">
            <mxPoint x="460" y="300" as="sourcePoint" />
            <mxPoint x="590" y="180" as="targetPoint" />
          </mxGeometry>
        </mxCell>
        <mxCell id="rdgNrElGMLp600ZAKfWI-76" value="Уточнить параметры доставки" style="ellipse;whiteSpace=wrap;html=1;" parent="1" vertex="1">
          <mxGeometry x="30" y="360" width="180" height="40" as="geometry" />
        </mxCell>
        <mxCell id="rdgNrElGMLp600ZAKfWI-77" value="&amp;lt;&amp;lt;extend&amp;gt;&amp;gt;" style="html=1;verticalAlign=bottom;labelBackgroundColor=none;endArrow=open;endFill=0;dashed=1;rounded=0;strokeColor=default;fontFamily=Helvetica;fontSize=11;fontColor=default;shape=connector;exitX=1;exitY=0.5;exitDx=0;exitDy=0;entryX=0;entryY=0.5;entryDx=0;entryDy=0;" parent="1" source="rdgNrElGMLp600ZAKfWI-76" target="rdgNrElGMLp600ZAKfWI-67" edge="1">
          <mxGeometry width="160" relative="1" as="geometry">
            <mxPoint x="190.00000000000023" y="300" as="sourcePoint" />
            <mxPoint x="279.9999999999998" y="300" as="targetPoint" />
          </mxGeometry>
        </mxCell>
      </root>
    </mxGraphModel>
  </diagram>
  <diagram name="Тут с коментами" id="DjGdh40kvcbGYOoTLUBj">
    <mxGraphModel dx="1470" dy="661" grid="1" gridSize="10" guides="1" tooltips="1" connect="1" arrows="1" fold="1" page="1" pageScale="1" pageWidth="827" pageHeight="1169" math="0" shadow="0">
      <root>
        <mxCell id="MJT74RPEsto_0Qt1wx4j-0" />
        <mxCell id="MJT74RPEsto_0Qt1wx4j-1" parent="MJT74RPEsto_0Qt1wx4j-0" />
        <mxCell id="MJT74RPEsto_0Qt1wx4j-2" value="Администратор" style="shape=umlActor;verticalLabelPosition=bottom;verticalAlign=top;html=1;outlineConnect=0;points=[[0,0.33,0,0,0],[0,1,0,0,0],[0.27,0.1,0,0,0],[0.5,0,0,0,0],[0.5,0.5,0,0,0],[0.5,1,0,0,0],[0.77,0.1,0,0,0],[1,0.33,0,0,0],[1,1,0,0,0]];" parent="MJT74RPEsto_0Qt1wx4j-1" vertex="1">
          <mxGeometry x="850" y="190" width="30" height="60" as="geometry" />
        </mxCell>
        <mxCell id="MJT74RPEsto_0Qt1wx4j-3" value="Пользователь&lt;br&gt;" style="shape=umlActor;verticalLabelPosition=bottom;verticalAlign=top;html=1;outlineConnect=0;" parent="MJT74RPEsto_0Qt1wx4j-1" vertex="1">
          <mxGeometry x="580" y="180" width="30" height="60" as="geometry" />
        </mxCell>
        <mxCell id="MJT74RPEsto_0Qt1wx4j-4" value="Добавить&amp;nbsp;товар в систему" style="ellipse;whiteSpace=wrap;html=1;" parent="MJT74RPEsto_0Qt1wx4j-1" vertex="1">
          <mxGeometry x="980" y="130" width="180" height="40" as="geometry" />
        </mxCell>
        <mxCell id="MJT74RPEsto_0Qt1wx4j-5" value="Удалить товар из системы" style="ellipse;whiteSpace=wrap;html=1;" parent="MJT74RPEsto_0Qt1wx4j-1" vertex="1">
          <mxGeometry x="980" y="180" width="180" height="40" as="geometry" />
        </mxCell>
        <mxCell id="MJT74RPEsto_0Qt1wx4j-6" value="Редактировать страницу &lt;br&gt;товара" style="ellipse;whiteSpace=wrap;html=1;" parent="MJT74RPEsto_0Qt1wx4j-1" vertex="1">
          <mxGeometry x="980" y="230" width="180" height="40" as="geometry" />
        </mxCell>
        <mxCell id="MJT74RPEsto_0Qt1wx4j-7" value="Войти в систему" style="ellipse;whiteSpace=wrap;html=1;" parent="MJT74RPEsto_0Qt1wx4j-1" vertex="1">
          <mxGeometry x="640" y="165" width="180" height="40" as="geometry" />
        </mxCell>
        <mxCell id="MJT74RPEsto_0Qt1wx4j-8" value="Модерация отзывов на странице товаров" style="ellipse;whiteSpace=wrap;html=1;" parent="MJT74RPEsto_0Qt1wx4j-1" vertex="1">
          <mxGeometry x="1230" y="140" width="100" height="90" as="geometry" />
        </mxCell>
        <mxCell id="MJT74RPEsto_0Qt1wx4j-9" value="Зарегетрироваться в системе" style="ellipse;whiteSpace=wrap;html=1;" parent="MJT74RPEsto_0Qt1wx4j-1" vertex="1">
          <mxGeometry x="640" y="30" width="180" height="40" as="geometry" />
        </mxCell>
        <mxCell id="MJT74RPEsto_0Qt1wx4j-10" value="Добавить товар в корзину" style="ellipse;whiteSpace=wrap;html=1;" parent="MJT74RPEsto_0Qt1wx4j-1" vertex="1">
          <mxGeometry y="277.5" width="180" height="40" as="geometry" />
        </mxCell>
        <mxCell id="MJT74RPEsto_0Qt1wx4j-11" value="Посмотреть каталога" style="ellipse;whiteSpace=wrap;html=1;" parent="MJT74RPEsto_0Qt1wx4j-1" vertex="1">
          <mxGeometry x="200" y="80" width="180" height="40" as="geometry" />
        </mxCell>
        <mxCell id="MJT74RPEsto_0Qt1wx4j-12" value="Посмотреть избранное" style="ellipse;whiteSpace=wrap;html=1;" parent="MJT74RPEsto_0Qt1wx4j-1" vertex="1">
          <mxGeometry x="300" y="140" width="180" height="40" as="geometry" />
        </mxCell>
        <mxCell id="MJT74RPEsto_0Qt1wx4j-13" value="Посмотреть страничку товара" style="ellipse;whiteSpace=wrap;html=1;" parent="MJT74RPEsto_0Qt1wx4j-1" vertex="1">
          <mxGeometry x="270" y="237.5" width="180" height="40" as="geometry" />
        </mxCell>
        <mxCell id="MJT74RPEsto_0Qt1wx4j-14" value="Проверить личный кабинет" style="ellipse;whiteSpace=wrap;html=1;" parent="MJT74RPEsto_0Qt1wx4j-1" vertex="1">
          <mxGeometry x="370" y="40" width="180" height="40" as="geometry" />
        </mxCell>
        <mxCell id="MJT74RPEsto_0Qt1wx4j-15" value="Редактировать новостную ленту" style="ellipse;whiteSpace=wrap;html=1;" parent="MJT74RPEsto_0Qt1wx4j-1" vertex="1">
          <mxGeometry x="980" y="300" width="180" height="40" as="geometry" />
        </mxCell>
        <mxCell id="MJT74RPEsto_0Qt1wx4j-16" value="Получить данные &lt;br&gt;для доступа к кабинету" style="ellipse;whiteSpace=wrap;html=1;" parent="MJT74RPEsto_0Qt1wx4j-1" vertex="1">
          <mxGeometry x="640" y="300" width="180" height="40" as="geometry" />
        </mxCell>
        <mxCell id="MJT74RPEsto_0Qt1wx4j-17" value="" style="endArrow=none;html=1;rounded=0;exitX=1;exitY=0.3333333333333333;exitDx=0;exitDy=0;exitPerimeter=0;entryX=0;entryY=1;entryDx=0;entryDy=0;" parent="MJT74RPEsto_0Qt1wx4j-1" source="MJT74RPEsto_0Qt1wx4j-3" target="MJT74RPEsto_0Qt1wx4j-7" edge="1">
          <mxGeometry width="50" height="50" relative="1" as="geometry">
            <mxPoint x="750" y="200" as="sourcePoint" />
            <mxPoint x="800" y="150" as="targetPoint" />
          </mxGeometry>
        </mxCell>
        <mxCell id="MJT74RPEsto_0Qt1wx4j-18" value="" style="endArrow=none;html=1;rounded=0;exitX=0;exitY=0.3333333333333333;exitDx=0;exitDy=0;exitPerimeter=0;entryX=1;entryY=0.5;entryDx=0;entryDy=0;" parent="MJT74RPEsto_0Qt1wx4j-1" source="MJT74RPEsto_0Qt1wx4j-2" target="MJT74RPEsto_0Qt1wx4j-7" edge="1">
          <mxGeometry width="50" height="50" relative="1" as="geometry">
            <mxPoint x="630" y="220" as="sourcePoint" />
            <mxPoint x="760" y="160" as="targetPoint" />
          </mxGeometry>
        </mxCell>
        <mxCell id="MJT74RPEsto_0Qt1wx4j-19" value="&amp;lt;&amp;lt;extend&amp;gt;&amp;gt;" style="html=1;verticalAlign=bottom;labelBackgroundColor=none;endArrow=open;endFill=0;dashed=1;rounded=0;exitX=0.5;exitY=1;exitDx=0;exitDy=0;entryX=0.5;entryY=0;entryDx=0;entryDy=0;" parent="MJT74RPEsto_0Qt1wx4j-1" source="MJT74RPEsto_0Qt1wx4j-9" target="MJT74RPEsto_0Qt1wx4j-7" edge="1">
          <mxGeometry x="0.1265" y="-2" width="160" relative="1" as="geometry">
            <mxPoint x="770" y="130" as="sourcePoint" />
            <mxPoint x="850" y="60" as="targetPoint" />
            <mxPoint as="offset" />
          </mxGeometry>
        </mxCell>
        <mxCell id="MJT74RPEsto_0Qt1wx4j-20" value="" style="endArrow=none;html=1;rounded=0;exitX=0;exitY=0.33;exitDx=0;exitDy=0;exitPerimeter=0;entryX=0.5;entryY=0;entryDx=0;entryDy=0;" parent="MJT74RPEsto_0Qt1wx4j-1" source="MJT74RPEsto_0Qt1wx4j-2" target="MJT74RPEsto_0Qt1wx4j-16" edge="1">
          <mxGeometry width="50" height="50" relative="1" as="geometry">
            <mxPoint x="460" y="240" as="sourcePoint" />
            <mxPoint x="590" y="180" as="targetPoint" />
          </mxGeometry>
        </mxCell>
        <mxCell id="MJT74RPEsto_0Qt1wx4j-21" value="" style="endArrow=none;html=1;rounded=0;exitX=1;exitY=0.3333333333333333;exitDx=0;exitDy=0;exitPerimeter=0;entryX=0.5;entryY=1;entryDx=0;entryDy=0;" parent="MJT74RPEsto_0Qt1wx4j-1" source="MJT74RPEsto_0Qt1wx4j-3" target="MJT74RPEsto_0Qt1wx4j-9" edge="1">
          <mxGeometry width="50" height="50" relative="1" as="geometry">
            <mxPoint x="650" y="240" as="sourcePoint" />
            <mxPoint x="780" y="180" as="targetPoint" />
          </mxGeometry>
        </mxCell>
        <mxCell id="MJT74RPEsto_0Qt1wx4j-22" value="" style="endArrow=none;html=1;rounded=0;exitX=1;exitY=0.3333333333333333;exitDx=0;exitDy=0;exitPerimeter=0;entryX=0;entryY=0.5;entryDx=0;entryDy=0;" parent="MJT74RPEsto_0Qt1wx4j-1" source="MJT74RPEsto_0Qt1wx4j-2" target="MJT74RPEsto_0Qt1wx4j-4" edge="1">
          <mxGeometry width="50" height="50" relative="1" as="geometry">
            <mxPoint x="480" y="260" as="sourcePoint" />
            <mxPoint x="610" y="200" as="targetPoint" />
          </mxGeometry>
        </mxCell>
        <mxCell id="MJT74RPEsto_0Qt1wx4j-23" value="" style="endArrow=none;html=1;rounded=0;entryX=0;entryY=0.5;entryDx=0;entryDy=0;" parent="MJT74RPEsto_0Qt1wx4j-1" target="MJT74RPEsto_0Qt1wx4j-15" edge="1">
          <mxGeometry width="50" height="50" relative="1" as="geometry">
            <mxPoint x="880" y="210" as="sourcePoint" />
            <mxPoint x="1020" y="230" as="targetPoint" />
          </mxGeometry>
        </mxCell>
        <mxCell id="MJT74RPEsto_0Qt1wx4j-24" value="" style="endArrow=none;html=1;rounded=0;entryX=0;entryY=0.5;entryDx=0;entryDy=0;" parent="MJT74RPEsto_0Qt1wx4j-1" target="MJT74RPEsto_0Qt1wx4j-6" edge="1">
          <mxGeometry width="50" height="50" relative="1" as="geometry">
            <mxPoint x="880" y="210" as="sourcePoint" />
            <mxPoint x="1030" y="240" as="targetPoint" />
          </mxGeometry>
        </mxCell>
        <mxCell id="MJT74RPEsto_0Qt1wx4j-25" value="" style="endArrow=none;html=1;rounded=0;entryX=0;entryY=0.5;entryDx=0;entryDy=0;" parent="MJT74RPEsto_0Qt1wx4j-1" target="MJT74RPEsto_0Qt1wx4j-5" edge="1">
          <mxGeometry width="50" height="50" relative="1" as="geometry">
            <mxPoint x="880" y="210" as="sourcePoint" />
            <mxPoint x="1040" y="250" as="targetPoint" />
          </mxGeometry>
        </mxCell>
        <mxCell id="MJT74RPEsto_0Qt1wx4j-26" value="Добавить информацию о скидках" style="ellipse;whiteSpace=wrap;html=1;" parent="MJT74RPEsto_0Qt1wx4j-1" vertex="1">
          <mxGeometry x="970" y="390" width="80" height="70" as="geometry" />
        </mxCell>
        <mxCell id="MJT74RPEsto_0Qt1wx4j-27" value="Добавить информацию об акциях" style="ellipse;whiteSpace=wrap;html=1;" parent="MJT74RPEsto_0Qt1wx4j-1" vertex="1">
          <mxGeometry x="1090" y="390" width="80" height="75" as="geometry" />
        </mxCell>
        <mxCell id="MJT74RPEsto_0Qt1wx4j-30" value="Изменить фото товара" style="ellipse;whiteSpace=wrap;html=1;" parent="MJT74RPEsto_0Qt1wx4j-1" vertex="1">
          <mxGeometry x="1290" y="230" width="80" height="75" as="geometry" />
        </mxCell>
        <mxCell id="MJT74RPEsto_0Qt1wx4j-31" value="Изменить описание товара" style="ellipse;whiteSpace=wrap;html=1;" parent="MJT74RPEsto_0Qt1wx4j-1" vertex="1">
          <mxGeometry x="1220" y="280" width="80" height="80" as="geometry" />
        </mxCell>
        <mxCell id="MJT74RPEsto_0Qt1wx4j-35" value="" style="endArrow=none;html=1;rounded=0;exitX=1;exitY=1;exitDx=0;exitDy=0;entryX=0;entryY=0.3333333333333333;entryDx=0;entryDy=0;entryPerimeter=0;" parent="MJT74RPEsto_0Qt1wx4j-1" source="MJT74RPEsto_0Qt1wx4j-14" target="MJT74RPEsto_0Qt1wx4j-3" edge="1">
          <mxGeometry width="50" height="50" relative="1" as="geometry">
            <mxPoint x="440" y="130" as="sourcePoint" />
            <mxPoint x="570" y="145" as="targetPoint" />
          </mxGeometry>
        </mxCell>
        <mxCell id="MJT74RPEsto_0Qt1wx4j-36" value="" style="endArrow=none;html=1;rounded=0;exitX=1;exitY=0.5;exitDx=0;exitDy=0;entryX=0;entryY=0.3333333333333333;entryDx=0;entryDy=0;entryPerimeter=0;" parent="MJT74RPEsto_0Qt1wx4j-1" source="MJT74RPEsto_0Qt1wx4j-11" target="MJT74RPEsto_0Qt1wx4j-3" edge="1">
          <mxGeometry width="50" height="50" relative="1" as="geometry">
            <mxPoint x="640" y="230" as="sourcePoint" />
            <mxPoint x="770" y="245" as="targetPoint" />
          </mxGeometry>
        </mxCell>
        <mxCell id="MJT74RPEsto_0Qt1wx4j-37" value="" style="endArrow=none;html=1;rounded=0;exitX=1;exitY=1;exitDx=0;exitDy=0;entryX=0;entryY=0.3333333333333333;entryDx=0;entryDy=0;entryPerimeter=0;" parent="MJT74RPEsto_0Qt1wx4j-1" source="MJT74RPEsto_0Qt1wx4j-12" target="MJT74RPEsto_0Qt1wx4j-3" edge="1">
          <mxGeometry width="50" height="50" relative="1" as="geometry">
            <mxPoint x="650" y="240" as="sourcePoint" />
            <mxPoint x="580" y="200" as="targetPoint" />
          </mxGeometry>
        </mxCell>
        <mxCell id="MJT74RPEsto_0Qt1wx4j-38" value="" style="endArrow=none;html=1;rounded=0;exitX=1;exitY=0.5;exitDx=0;exitDy=0;entryX=0;entryY=0.3333333333333333;entryDx=0;entryDy=0;entryPerimeter=0;" parent="MJT74RPEsto_0Qt1wx4j-1" source="MJT74RPEsto_0Qt1wx4j-13" target="MJT74RPEsto_0Qt1wx4j-3" edge="1">
          <mxGeometry width="50" height="50" relative="1" as="geometry">
            <mxPoint x="660" y="250" as="sourcePoint" />
            <mxPoint x="580" y="200" as="targetPoint" />
          </mxGeometry>
        </mxCell>
        <mxCell id="MJT74RPEsto_0Qt1wx4j-39" value="Прочитать отрывок" style="ellipse;whiteSpace=wrap;html=1;" parent="MJT74RPEsto_0Qt1wx4j-1" vertex="1">
          <mxGeometry y="197.5" width="180" height="40" as="geometry" />
        </mxCell>
        <mxCell id="MJT74RPEsto_0Qt1wx4j-40" value="Посмотреть корзину" style="ellipse;whiteSpace=wrap;html=1;" parent="MJT74RPEsto_0Qt1wx4j-1" vertex="1">
          <mxGeometry x="270" y="300" width="180" height="40" as="geometry" />
        </mxCell>
        <mxCell id="MJT74RPEsto_0Qt1wx4j-41" value="Оформить доставку" style="ellipse;whiteSpace=wrap;html=1;" parent="MJT74RPEsto_0Qt1wx4j-1" vertex="1">
          <mxGeometry x="170" y="465" width="180" height="40" as="geometry" />
        </mxCell>
        <mxCell id="MJT74RPEsto_0Qt1wx4j-42" value="" style="endArrow=none;html=1;rounded=0;exitX=1;exitY=0.5;exitDx=0;exitDy=0;entryX=0;entryY=0.3333333333333333;entryDx=0;entryDy=0;entryPerimeter=0;" parent="MJT74RPEsto_0Qt1wx4j-1" source="MJT74RPEsto_0Qt1wx4j-40" target="MJT74RPEsto_0Qt1wx4j-3" edge="1">
          <mxGeometry width="50" height="50" relative="1" as="geometry">
            <mxPoint x="460" y="267.5" as="sourcePoint" />
            <mxPoint x="590" y="210" as="targetPoint" />
          </mxGeometry>
        </mxCell>
        <mxCell id="MJT74RPEsto_0Qt1wx4j-43" value="&amp;lt;&amp;lt;extend&amp;gt;&amp;gt;" style="html=1;verticalAlign=bottom;labelBackgroundColor=none;endArrow=open;endFill=0;dashed=1;rounded=0;strokeColor=default;fontFamily=Helvetica;fontSize=11;fontColor=default;shape=connector;exitX=1;exitY=0.5;exitDx=0;exitDy=0;entryX=0;entryY=0.5;entryDx=0;entryDy=0;" parent="MJT74RPEsto_0Qt1wx4j-1" source="MJT74RPEsto_0Qt1wx4j-39" target="MJT74RPEsto_0Qt1wx4j-13" edge="1">
          <mxGeometry width="160" relative="1" as="geometry">
            <mxPoint x="190" y="260" as="sourcePoint" />
            <mxPoint x="560" y="350" as="targetPoint" />
          </mxGeometry>
        </mxCell>
        <mxCell id="MJT74RPEsto_0Qt1wx4j-44" value="&amp;lt;&amp;lt;extend&amp;gt;&amp;gt;" style="html=1;verticalAlign=bottom;labelBackgroundColor=none;endArrow=open;endFill=0;dashed=1;rounded=0;strokeColor=default;fontFamily=Helvetica;fontSize=11;fontColor=default;shape=connector;exitX=1;exitY=0.5;exitDx=0;exitDy=0;entryX=0;entryY=0.5;entryDx=0;entryDy=0;" parent="MJT74RPEsto_0Qt1wx4j-1" source="MJT74RPEsto_0Qt1wx4j-10" target="MJT74RPEsto_0Qt1wx4j-13" edge="1">
          <mxGeometry x="-0.1134" width="160" relative="1" as="geometry">
            <mxPoint x="190.00000000000023" y="270" as="sourcePoint" />
            <mxPoint x="279.9999999999998" y="330" as="targetPoint" />
            <mxPoint as="offset" />
          </mxGeometry>
        </mxCell>
        <mxCell id="MJT74RPEsto_0Qt1wx4j-45" value="&amp;lt;&amp;lt;extend&amp;gt;&amp;gt;" style="html=1;verticalAlign=bottom;labelBackgroundColor=none;endArrow=open;endFill=0;dashed=1;rounded=0;strokeColor=default;fontFamily=Helvetica;fontSize=11;fontColor=default;shape=connector;exitX=0.5;exitY=0;exitDx=0;exitDy=0;entryX=0.5;entryY=1;entryDx=0;entryDy=0;" parent="MJT74RPEsto_0Qt1wx4j-1" source="MJT74RPEsto_0Qt1wx4j-41" target="1JfQGpwExetTYZKSQZE2-0" edge="1">
          <mxGeometry x="-0.2" width="160" relative="1" as="geometry">
            <mxPoint x="200.00000000000023" y="280" as="sourcePoint" />
            <mxPoint x="360" y="460" as="targetPoint" />
            <mxPoint as="offset" />
          </mxGeometry>
        </mxCell>
        <mxCell id="MJT74RPEsto_0Qt1wx4j-47" value="Уточнить параметры доставки" style="ellipse;whiteSpace=wrap;html=1;" parent="MJT74RPEsto_0Qt1wx4j-1" vertex="1">
          <mxGeometry x="170" y="580" width="180" height="40" as="geometry" />
        </mxCell>
        <mxCell id="MJT74RPEsto_0Qt1wx4j-48" value="&amp;lt;&amp;lt;extend&amp;gt;&amp;gt;" style="html=1;verticalAlign=bottom;labelBackgroundColor=none;endArrow=open;endFill=0;dashed=1;rounded=0;strokeColor=default;fontFamily=Helvetica;fontSize=11;fontColor=default;shape=connector;exitX=0.5;exitY=0;exitDx=0;exitDy=0;entryX=0.5;entryY=1;entryDx=0;entryDy=0;" parent="MJT74RPEsto_0Qt1wx4j-1" source="MJT74RPEsto_0Qt1wx4j-47" target="MJT74RPEsto_0Qt1wx4j-41" edge="1">
          <mxGeometry width="160" relative="1" as="geometry">
            <mxPoint x="90.00000000000023" y="330" as="sourcePoint" />
            <mxPoint x="179.99999999999977" y="330" as="targetPoint" />
          </mxGeometry>
        </mxCell>
        <mxCell id="moclSn92C_WP2juPm89w-5" value="" style="endArrow=none;dashed=1;html=1;rounded=0;labelBackgroundColor=default;strokeColor=default;fontFamily=Helvetica;fontSize=11;fontColor=default;shape=connector;exitX=0;exitY=1;exitDx=0;exitDy=0;entryX=0.5;entryY=0;entryDx=0;entryDy=0;entryPerimeter=0;" parent="MJT74RPEsto_0Qt1wx4j-1" source="MJT74RPEsto_0Qt1wx4j-13" target="moclSn92C_WP2juPm89w-6" edge="1">
          <mxGeometry width="50" height="50" relative="1" as="geometry">
            <mxPoint x="1017" y="840" as="sourcePoint" />
            <mxPoint x="1067" y="790" as="targetPoint" />
          </mxGeometry>
        </mxCell>
        <mxCell id="moclSn92C_WP2juPm89w-6" value="Доступ к странице товара возможен из нескольких окон приложения" style="shape=note2;boundedLbl=1;whiteSpace=wrap;html=1;size=25;verticalAlign=top;align=center;fontFamily=Helvetica;fontSize=11;fontColor=default;" parent="MJT74RPEsto_0Qt1wx4j-1" vertex="1">
          <mxGeometry x="5" y="360" width="230" height="70" as="geometry" />
        </mxCell>
        <mxCell id="moclSn92C_WP2juPm89w-7" value="Пользователи обладают возможностью свободной регистрации. Администрации сгенерированные логины/пароли" style="shape=note2;boundedLbl=1;whiteSpace=wrap;html=1;size=18;verticalAlign=top;align=center;fontFamily=Helvetica;fontSize=11;fontColor=default;" parent="MJT74RPEsto_0Qt1wx4j-1" vertex="1">
          <mxGeometry x="840" y="7.5" width="230" height="85" as="geometry" />
        </mxCell>
        <mxCell id="moclSn92C_WP2juPm89w-8" value="" style="endArrow=none;dashed=1;html=1;rounded=0;labelBackgroundColor=default;strokeColor=default;fontFamily=Helvetica;fontSize=11;fontColor=default;shape=connector;exitX=1;exitY=0;exitDx=0;exitDy=0;entryX=0.5;entryY=1;entryDx=0;entryDy=0;entryPerimeter=0;" parent="MJT74RPEsto_0Qt1wx4j-1" source="MJT74RPEsto_0Qt1wx4j-7" target="moclSn92C_WP2juPm89w-7" edge="1">
          <mxGeometry width="50" height="50" relative="1" as="geometry">
            <mxPoint x="433.63961030678956" y="505.85786437626894" as="sourcePoint" />
            <mxPoint x="480" y="475" as="targetPoint" />
          </mxGeometry>
        </mxCell>
        <mxCell id="1JfQGpwExetTYZKSQZE2-0" value="Оформить заказ" style="ellipse;whiteSpace=wrap;html=1;" parent="MJT74RPEsto_0Qt1wx4j-1" vertex="1">
          <mxGeometry x="270" y="380" width="180" height="40" as="geometry" />
        </mxCell>
        <mxCell id="1JfQGpwExetTYZKSQZE2-2" value="&amp;lt;&amp;lt;extend&amp;gt;&amp;gt;" style="html=1;verticalAlign=bottom;labelBackgroundColor=none;endArrow=open;endFill=0;dashed=1;rounded=0;strokeColor=default;fontFamily=Helvetica;fontSize=11;fontColor=default;shape=connector;exitX=0.5;exitY=0;exitDx=0;exitDy=0;entryX=0.5;entryY=1;entryDx=0;entryDy=0;" parent="MJT74RPEsto_0Qt1wx4j-1" source="1JfQGpwExetTYZKSQZE2-0" target="MJT74RPEsto_0Qt1wx4j-40" edge="1">
          <mxGeometry x="-0.2" width="160" relative="1" as="geometry">
            <mxPoint x="370" y="530" as="sourcePoint" />
            <mxPoint x="370" y="460" as="targetPoint" />
            <mxPoint as="offset" />
          </mxGeometry>
        </mxCell>
        <mxCell id="-hBf8Xd7w9k5M35sAEDO-0" value="&amp;lt;&amp;lt;extend&amp;gt;&amp;gt;" style="html=1;verticalAlign=bottom;labelBackgroundColor=none;endArrow=open;endFill=0;dashed=1;rounded=0;strokeColor=default;fontFamily=Helvetica;fontSize=11;fontColor=default;shape=connector;exitX=0;exitY=1;exitDx=0;exitDy=0;entryX=0;entryY=0;entryDx=0;entryDy=0;" parent="MJT74RPEsto_0Qt1wx4j-1" source="MJT74RPEsto_0Qt1wx4j-11" target="MJT74RPEsto_0Qt1wx4j-13" edge="1">
          <mxGeometry width="160" relative="1" as="geometry">
            <mxPoint x="190" y="228" as="sourcePoint" />
            <mxPoint x="280" y="268" as="targetPoint" />
          </mxGeometry>
        </mxCell>
        <mxCell id="-hBf8Xd7w9k5M35sAEDO-1" value="&amp;lt;&amp;lt;extend&amp;gt;&amp;gt;" style="html=1;verticalAlign=bottom;labelBackgroundColor=none;endArrow=open;endFill=0;dashed=1;rounded=0;strokeColor=default;fontFamily=Helvetica;fontSize=11;fontColor=default;shape=connector;exitX=0.5;exitY=1;exitDx=0;exitDy=0;entryX=0.5;entryY=0;entryDx=0;entryDy=0;" parent="MJT74RPEsto_0Qt1wx4j-1" source="MJT74RPEsto_0Qt1wx4j-12" target="MJT74RPEsto_0Qt1wx4j-13" edge="1">
          <mxGeometry width="160" relative="1" as="geometry">
            <mxPoint x="200" y="238" as="sourcePoint" />
            <mxPoint x="290" y="278" as="targetPoint" />
          </mxGeometry>
        </mxCell>
        <mxCell id="qKa23zM9nogLTPZeZp_V-0" value="&amp;lt;&amp;lt;extend&amp;gt;&amp;gt;" style="html=1;verticalAlign=bottom;labelBackgroundColor=none;endArrow=open;endFill=0;dashed=1;rounded=0;strokeColor=default;fontFamily=Helvetica;fontSize=11;fontColor=default;shape=connector;entryX=1;entryY=0.5;entryDx=0;entryDy=0;exitX=0;exitY=1;exitDx=0;exitDy=0;" parent="MJT74RPEsto_0Qt1wx4j-1" source="MJT74RPEsto_0Qt1wx4j-8" target="MJT74RPEsto_0Qt1wx4j-6" edge="1">
          <mxGeometry width="160" relative="1" as="geometry">
            <mxPoint x="1540" y="210" as="sourcePoint" />
            <mxPoint x="1420.0000000000002" y="350" as="targetPoint" />
          </mxGeometry>
        </mxCell>
        <mxCell id="qKa23zM9nogLTPZeZp_V-1" value="&amp;lt;&amp;lt;extend&amp;gt;&amp;gt;" style="html=1;verticalAlign=bottom;labelBackgroundColor=none;endArrow=open;endFill=0;dashed=1;rounded=0;strokeColor=default;fontFamily=Helvetica;fontSize=11;fontColor=default;shape=connector;exitX=0;exitY=0.5;exitDx=0;exitDy=0;entryX=1;entryY=0.5;entryDx=0;entryDy=0;" parent="MJT74RPEsto_0Qt1wx4j-1" source="MJT74RPEsto_0Qt1wx4j-31" target="MJT74RPEsto_0Qt1wx4j-6" edge="1">
          <mxGeometry width="160" relative="1" as="geometry">
            <mxPoint x="1255" y="227" as="sourcePoint" />
            <mxPoint x="1170" y="360" as="targetPoint" />
          </mxGeometry>
        </mxCell>
        <mxCell id="qKa23zM9nogLTPZeZp_V-2" value="&amp;lt;&amp;lt;extend&amp;gt;&amp;gt;" style="html=1;verticalAlign=bottom;labelBackgroundColor=none;endArrow=open;endFill=0;dashed=1;rounded=0;strokeColor=default;fontFamily=Helvetica;fontSize=11;fontColor=default;shape=connector;entryX=1;entryY=0.5;entryDx=0;entryDy=0;exitX=0;exitY=0.5;exitDx=0;exitDy=0;" parent="MJT74RPEsto_0Qt1wx4j-1" source="MJT74RPEsto_0Qt1wx4j-30" target="MJT74RPEsto_0Qt1wx4j-6" edge="1">
          <mxGeometry width="160" relative="1" as="geometry">
            <mxPoint x="1265" y="237" as="sourcePoint" />
            <mxPoint x="1180" y="340" as="targetPoint" />
          </mxGeometry>
        </mxCell>
        <mxCell id="qKa23zM9nogLTPZeZp_V-3" value="&amp;lt;&amp;lt;extend&amp;gt;&amp;gt;" style="html=1;verticalAlign=bottom;labelBackgroundColor=none;endArrow=open;endFill=0;dashed=1;rounded=0;strokeColor=default;fontFamily=Helvetica;fontSize=11;fontColor=default;shape=connector;entryX=0.5;entryY=1;entryDx=0;entryDy=0;exitX=0.5;exitY=0;exitDx=0;exitDy=0;" parent="MJT74RPEsto_0Qt1wx4j-1" source="MJT74RPEsto_0Qt1wx4j-27" target="MJT74RPEsto_0Qt1wx4j-15" edge="1">
          <mxGeometry width="160" relative="1" as="geometry">
            <mxPoint x="1275" y="247" as="sourcePoint" />
            <mxPoint x="1190" y="350" as="targetPoint" />
          </mxGeometry>
        </mxCell>
        <mxCell id="qKa23zM9nogLTPZeZp_V-4" value="&amp;lt;&amp;lt;extend&amp;gt;&amp;gt;" style="html=1;verticalAlign=bottom;labelBackgroundColor=none;endArrow=open;endFill=0;dashed=1;rounded=0;strokeColor=default;fontFamily=Helvetica;fontSize=11;fontColor=default;shape=connector;exitX=0.5;exitY=0;exitDx=0;exitDy=0;" parent="MJT74RPEsto_0Qt1wx4j-1" source="MJT74RPEsto_0Qt1wx4j-26" edge="1">
          <mxGeometry width="160" relative="1" as="geometry">
            <mxPoint x="1285" y="257" as="sourcePoint" />
            <mxPoint x="1070" y="340" as="targetPoint" />
          </mxGeometry>
        </mxCell>
        <mxCell id="Wcmcj682ZC0mRpl-JMuI-0" value="Оформить самовывоз" style="ellipse;whiteSpace=wrap;html=1;" vertex="1" parent="MJT74RPEsto_0Qt1wx4j-1">
          <mxGeometry x="370" y="465" width="180" height="40" as="geometry" />
        </mxCell>
        <mxCell id="Wcmcj682ZC0mRpl-JMuI-3" value="&amp;lt;&amp;lt;extend&amp;gt;&amp;gt;" style="html=1;verticalAlign=bottom;labelBackgroundColor=none;endArrow=open;endFill=0;dashed=1;rounded=0;strokeColor=default;fontFamily=Helvetica;fontSize=11;fontColor=default;shape=connector;exitX=0.5;exitY=0;exitDx=0;exitDy=0;entryX=0.5;entryY=1;entryDx=0;entryDy=0;" edge="1" parent="MJT74RPEsto_0Qt1wx4j-1" source="Wcmcj682ZC0mRpl-JMuI-0" target="1JfQGpwExetTYZKSQZE2-0">
          <mxGeometry x="-0.2" width="160" relative="1" as="geometry">
            <mxPoint x="270" y="475" as="sourcePoint" />
            <mxPoint x="370" y="430" as="targetPoint" />
            <mxPoint as="offset" />
          </mxGeometry>
        </mxCell>
        <mxCell id="Wcmcj682ZC0mRpl-JMuI-4" value="" style="endArrow=none;html=1;rounded=0;exitX=1;exitY=0.5;exitDx=0;exitDy=0;entryX=0;entryY=0.3333333333333333;entryDx=0;entryDy=0;entryPerimeter=0;" edge="1" parent="MJT74RPEsto_0Qt1wx4j-1" source="1JfQGpwExetTYZKSQZE2-0" target="MJT74RPEsto_0Qt1wx4j-3">
          <mxGeometry width="50" height="50" relative="1" as="geometry">
            <mxPoint x="460" y="330" as="sourcePoint" />
            <mxPoint x="590" y="210" as="targetPoint" />
          </mxGeometry>
        </mxCell>
      </root>
    </mxGraphModel>
  </diagram>
  <diagram name="Диаграмма последовательности" id="BFubLKH7F0Qv6Svbsqha">
    <mxGraphModel dx="2003" dy="529" grid="1" gridSize="10" guides="1" tooltips="1" connect="1" arrows="1" fold="1" page="1" pageScale="1" pageWidth="827" pageHeight="1169" math="0" shadow="0">
      <root>
        <mxCell id="ilqdD64VbUs7o2DT7oSR-0" />
        <mxCell id="ilqdD64VbUs7o2DT7oSR-1" parent="ilqdD64VbUs7o2DT7oSR-0" />
        <mxCell id="djdVcMgAwxcNeKkceROI-7" value="Клиент" style="shape=umlLifeline;participant=umlActor;perimeter=lifelinePerimeter;whiteSpace=wrap;html=1;container=1;collapsible=0;recursiveResize=0;verticalAlign=top;spacingTop=36;outlineConnect=0;fontFamily=Helvetica;fontSize=11;fontColor=default;" parent="ilqdD64VbUs7o2DT7oSR-1" vertex="1">
          <mxGeometry x="-40" width="20" height="400" as="geometry" />
        </mxCell>
        <mxCell id="djdVcMgAwxcNeKkceROI-12" value="" style="html=1;points=[];perimeter=orthogonalPerimeter;fontFamily=Helvetica;fontSize=11;fontColor=default;" parent="djdVcMgAwxcNeKkceROI-7" vertex="1">
          <mxGeometry x="5" y="95" width="10" height="225" as="geometry" />
        </mxCell>
        <mxCell id="djdVcMgAwxcNeKkceROI-8" value="Форма&amp;nbsp;&lt;br&gt;регистрации" style="shape=umlLifeline;participant=umlBoundary;perimeter=lifelinePerimeter;whiteSpace=wrap;html=1;container=1;collapsible=0;recursiveResize=0;verticalAlign=top;spacingTop=36;outlineConnect=0;fontFamily=Helvetica;fontSize=11;fontColor=default;" parent="ilqdD64VbUs7o2DT7oSR-1" vertex="1">
          <mxGeometry x="120" width="50" height="400" as="geometry" />
        </mxCell>
        <mxCell id="djdVcMgAwxcNeKkceROI-14" value="" style="html=1;points=[];perimeter=orthogonalPerimeter;fontFamily=Helvetica;fontSize=11;fontColor=default;" parent="djdVcMgAwxcNeKkceROI-8" vertex="1">
          <mxGeometry x="20" y="95" width="10" height="90" as="geometry" />
        </mxCell>
        <mxCell id="djdVcMgAwxcNeKkceROI-16" value="" style="html=1;points=[];perimeter=orthogonalPerimeter;fontFamily=Helvetica;fontSize=11;fontColor=default;" parent="djdVcMgAwxcNeKkceROI-8" vertex="1">
          <mxGeometry x="20" y="214" width="10" height="90" as="geometry" />
        </mxCell>
        <mxCell id="djdVcMgAwxcNeKkceROI-9" value="Spring&lt;br&gt;" style="shape=umlLifeline;participant=umlEntity;perimeter=lifelinePerimeter;whiteSpace=wrap;html=1;container=1;collapsible=0;recursiveResize=0;verticalAlign=top;spacingTop=36;outlineConnect=0;fontFamily=Helvetica;fontSize=11;fontColor=default;" parent="ilqdD64VbUs7o2DT7oSR-1" vertex="1">
          <mxGeometry x="470" width="40" height="400" as="geometry" />
        </mxCell>
        <mxCell id="djdVcMgAwxcNeKkceROI-15" value="" style="html=1;points=[];perimeter=orthogonalPerimeter;fontFamily=Helvetica;fontSize=11;fontColor=default;" parent="djdVcMgAwxcNeKkceROI-9" vertex="1">
          <mxGeometry x="15" y="95" width="10" height="205" as="geometry" />
        </mxCell>
        <mxCell id="djdVcMgAwxcNeKkceROI-19" value="" style="html=1;points=[];perimeter=orthogonalPerimeter;fontFamily=Helvetica;fontSize=11;fontColor=default;" parent="djdVcMgAwxcNeKkceROI-9" vertex="1">
          <mxGeometry x="25" y="165" width="10" height="50" as="geometry" />
        </mxCell>
        <mxCell id="djdVcMgAwxcNeKkceROI-20" value="пользователь создан" style="edgeStyle=orthogonalEdgeStyle;html=1;align=left;spacingLeft=2;endArrow=block;rounded=0;entryX=1;entryY=0;labelBackgroundColor=default;strokeColor=default;fontFamily=Helvetica;fontSize=11;fontColor=default;shape=connector;exitX=1.167;exitY=0.242;exitDx=0;exitDy=0;exitPerimeter=0;" parent="djdVcMgAwxcNeKkceROI-9" source="djdVcMgAwxcNeKkceROI-15" target="djdVcMgAwxcNeKkceROI-19" edge="1">
          <mxGeometry relative="1" as="geometry">
            <mxPoint x="30" y="145" as="sourcePoint" />
            <Array as="points">
              <mxPoint x="60" y="145" />
              <mxPoint x="60" y="165" />
            </Array>
          </mxGeometry>
        </mxCell>
        <mxCell id="djdVcMgAwxcNeKkceROI-17" value="заполняет данные" style="html=1;verticalAlign=bottom;endArrow=block;rounded=0;labelBackgroundColor=default;strokeColor=default;fontFamily=Helvetica;fontSize=11;fontColor=default;shape=connector;exitX=1;exitY=0.236;exitDx=0;exitDy=0;exitPerimeter=0;" parent="ilqdD64VbUs7o2DT7oSR-1" source="djdVcMgAwxcNeKkceROI-12" target="djdVcMgAwxcNeKkceROI-8" edge="1">
          <mxGeometry x="0.0046" width="80" relative="1" as="geometry">
            <mxPoint x="40" y="135" as="sourcePoint" />
            <mxPoint x="120" y="135" as="targetPoint" />
            <mxPoint as="offset" />
          </mxGeometry>
        </mxCell>
        <mxCell id="djdVcMgAwxcNeKkceROI-18" value="Данные переходят &lt;br&gt;к администратору" style="html=1;verticalAlign=bottom;endArrow=block;rounded=0;labelBackgroundColor=default;strokeColor=default;fontFamily=Helvetica;fontSize=11;fontColor=default;shape=connector;exitX=1.2;exitY=0.578;exitDx=0;exitDy=0;exitPerimeter=0;" parent="ilqdD64VbUs7o2DT7oSR-1" source="djdVcMgAwxcNeKkceROI-14" target="BVPQsx5LPsawxVzRGwkK-0" edge="1">
          <mxGeometry x="0.0046" width="80" relative="1" as="geometry">
            <mxPoint x="45" y="158.0999999999999" as="sourcePoint" />
            <mxPoint x="240" y="140" as="targetPoint" />
            <mxPoint as="offset" />
          </mxGeometry>
        </mxCell>
        <mxCell id="djdVcMgAwxcNeKkceROI-21" value="пользователь&lt;br&gt;&amp;nbsp;зарегестирован" style="endArrow=open;endSize=12;dashed=1;html=1;rounded=0;labelBackgroundColor=default;strokeColor=default;fontFamily=Helvetica;fontSize=11;fontColor=default;shape=connector;exitX=0.033;exitY=0.785;exitDx=0;exitDy=0;exitPerimeter=0;" parent="ilqdD64VbUs7o2DT7oSR-1" source="djdVcMgAwxcNeKkceROI-15" target="djdVcMgAwxcNeKkceROI-16" edge="1">
          <mxGeometry x="0.0343" y="-15" width="160" relative="1" as="geometry">
            <mxPoint x="151" y="115" as="sourcePoint" />
            <mxPoint x="311" y="115" as="targetPoint" />
            <mxPoint as="offset" />
          </mxGeometry>
        </mxCell>
        <mxCell id="BVPQsx5LPsawxVzRGwkK-0" value="Администратор" style="shape=umlLifeline;participant=umlControl;perimeter=lifelinePerimeter;whiteSpace=wrap;html=1;container=1;collapsible=0;recursiveResize=0;verticalAlign=top;spacingTop=36;outlineConnect=0;fontFamily=Helvetica;fontSize=11;fontColor=default;size=40;" parent="ilqdD64VbUs7o2DT7oSR-1" vertex="1">
          <mxGeometry x="300" width="40" height="400" as="geometry" />
        </mxCell>
        <mxCell id="BVPQsx5LPsawxVzRGwkK-1" value="" style="html=1;points=[];perimeter=orthogonalPerimeter;fontFamily=Helvetica;fontSize=11;fontColor=default;" parent="BVPQsx5LPsawxVzRGwkK-0" vertex="1">
          <mxGeometry x="15" y="100" width="10" height="90" as="geometry" />
        </mxCell>
        <mxCell id="BVPQsx5LPsawxVzRGwkK-2" value="Заказ доставлен" style="edgeStyle=orthogonalEdgeStyle;html=1;align=left;spacingLeft=2;endArrow=block;rounded=0;entryX=1;entryY=0;labelBackgroundColor=default;strokeColor=default;fontFamily=Helvetica;fontSize=11;fontColor=default;shape=connector;" parent="BVPQsx5LPsawxVzRGwkK-0" edge="1">
          <mxGeometry x="0.2789" relative="1" as="geometry">
            <mxPoint x="35" y="195" as="sourcePoint" />
            <Array as="points">
              <mxPoint x="65" y="195" />
            </Array>
            <mxPoint as="offset" />
          </mxGeometry>
        </mxCell>
        <mxCell id="BVPQsx5LPsawxVzRGwkK-4" value="Данные переходят &lt;br&gt;к администратору" style="html=1;verticalAlign=bottom;endArrow=block;rounded=0;labelBackgroundColor=default;strokeColor=default;fontFamily=Helvetica;fontSize=11;fontColor=default;shape=connector;" parent="ilqdD64VbUs7o2DT7oSR-1" source="BVPQsx5LPsawxVzRGwkK-1" target="djdVcMgAwxcNeKkceROI-9" edge="1">
          <mxGeometry x="0.0046" width="80" relative="1" as="geometry">
            <mxPoint x="162" y="157" as="sourcePoint" />
            <mxPoint x="329" y="157" as="targetPoint" />
            <mxPoint as="offset" />
          </mxGeometry>
        </mxCell>
        <mxCell id="BVPQsx5LPsawxVzRGwkK-5" value="Оповещение об &lt;br&gt;успешной регистрации &lt;br&gt;(Toast)" style="endArrow=open;endSize=12;dashed=1;html=1;rounded=0;labelBackgroundColor=default;strokeColor=default;fontFamily=Helvetica;fontSize=11;fontColor=default;shape=connector;exitX=0.001;exitY=0.868;exitDx=0;exitDy=0;exitPerimeter=0;" parent="ilqdD64VbUs7o2DT7oSR-1" source="djdVcMgAwxcNeKkceROI-16" target="djdVcMgAwxcNeKkceROI-7" edge="1">
          <mxGeometry x="0.0343" y="-15" width="160" relative="1" as="geometry">
            <mxPoint x="495" y="266" as="sourcePoint" />
            <mxPoint x="160" y="266" as="targetPoint" />
            <mxPoint as="offset" />
          </mxGeometry>
        </mxCell>
      </root>
    </mxGraphModel>
  </diagram>
  <diagram name="Копия Диаграмма последовательности" id="rsv_P01uNNsV3dljJO5N">
    <mxGraphModel dx="714" dy="786" grid="1" gridSize="10" guides="1" tooltips="1" connect="1" arrows="1" fold="1" page="1" pageScale="1" pageWidth="827" pageHeight="1169" math="0" shadow="0">
      <root>
        <mxCell id="oZl-ZMS8DpPu2iJ8mBZq-0" />
        <mxCell id="oZl-ZMS8DpPu2iJ8mBZq-1" parent="oZl-ZMS8DpPu2iJ8mBZq-0" />
        <mxCell id="oZl-ZMS8DpPu2iJ8mBZq-3" value="Клиент" style="shape=umlLifeline;participant=umlActor;perimeter=lifelinePerimeter;whiteSpace=wrap;html=1;container=1;collapsible=0;recursiveResize=0;verticalAlign=top;spacingTop=36;outlineConnect=0;fontFamily=Helvetica;fontSize=11;fontColor=default;" parent="oZl-ZMS8DpPu2iJ8mBZq-1" vertex="1">
          <mxGeometry x="20" y="10" width="25" height="430" as="geometry" />
        </mxCell>
        <mxCell id="oZl-ZMS8DpPu2iJ8mBZq-4" value="" style="html=1;points=[];perimeter=orthogonalPerimeter;fontFamily=Helvetica;fontSize=11;fontColor=default;" parent="oZl-ZMS8DpPu2iJ8mBZq-3" vertex="1">
          <mxGeometry x="5" y="140" width="10" height="225" as="geometry" />
        </mxCell>
        <mxCell id="oZl-ZMS8DpPu2iJ8mBZq-5" value="Новостная лента/Каталог/&lt;br&gt;Избранное" style="shape=umlLifeline;participant=umlBoundary;perimeter=lifelinePerimeter;whiteSpace=wrap;html=1;container=1;collapsible=0;recursiveResize=0;verticalAlign=top;spacingTop=36;outlineConnect=0;fontFamily=Helvetica;fontSize=11;fontColor=default;" parent="oZl-ZMS8DpPu2iJ8mBZq-1" vertex="1">
          <mxGeometry x="120" width="50" height="440" as="geometry" />
        </mxCell>
        <mxCell id="oZl-ZMS8DpPu2iJ8mBZq-6" value="" style="html=1;points=[];perimeter=orthogonalPerimeter;fontFamily=Helvetica;fontSize=11;fontColor=default;" parent="oZl-ZMS8DpPu2iJ8mBZq-5" vertex="1">
          <mxGeometry x="20" y="150" width="10" height="90" as="geometry" />
        </mxCell>
        <mxCell id="oZl-ZMS8DpPu2iJ8mBZq-15" value="Выбирает товар" style="html=1;verticalAlign=bottom;endArrow=block;rounded=0;labelBackgroundColor=default;strokeColor=default;fontFamily=Helvetica;fontSize=11;fontColor=default;shape=connector;" parent="oZl-ZMS8DpPu2iJ8mBZq-1" target="oZl-ZMS8DpPu2iJ8mBZq-6" edge="1">
          <mxGeometry x="0.0046" width="80" relative="1" as="geometry">
            <mxPoint x="30" y="195" as="sourcePoint" />
            <mxPoint x="149.5" y="213.0999999999999" as="targetPoint" />
            <mxPoint as="offset" />
          </mxGeometry>
        </mxCell>
        <mxCell id="oZl-ZMS8DpPu2iJ8mBZq-16" value="Изучает данные товара" style="html=1;verticalAlign=bottom;endArrow=block;rounded=0;labelBackgroundColor=default;strokeColor=default;fontFamily=Helvetica;fontSize=11;fontColor=default;shape=connector;entryX=-0.05;entryY=0.52;entryDx=0;entryDy=0;entryPerimeter=0;" parent="oZl-ZMS8DpPu2iJ8mBZq-1" target="dAmw7SrN8M_fuz1BZofJ-3" edge="1">
          <mxGeometry x="0.0046" width="80" relative="1" as="geometry">
            <mxPoint x="149.07142857142867" y="196.79999999999973" as="sourcePoint" />
            <mxPoint x="286" y="242" as="targetPoint" />
            <mxPoint as="offset" />
          </mxGeometry>
        </mxCell>
        <mxCell id="dAmw7SrN8M_fuz1BZofJ-0" value="Страница товара" style="shape=umlLifeline;participant=umlBoundary;perimeter=lifelinePerimeter;whiteSpace=wrap;html=1;container=1;collapsible=0;recursiveResize=0;verticalAlign=top;spacingTop=36;outlineConnect=0;fontFamily=Helvetica;fontSize=11;fontColor=default;" parent="oZl-ZMS8DpPu2iJ8mBZq-1" vertex="1">
          <mxGeometry x="260" width="50" height="440" as="geometry" />
        </mxCell>
        <mxCell id="dAmw7SrN8M_fuz1BZofJ-3" value="" style="html=1;points=[];perimeter=orthogonalPerimeter;fontFamily=Helvetica;fontSize=11;fontColor=default;" parent="dAmw7SrN8M_fuz1BZofJ-0" vertex="1">
          <mxGeometry x="20" y="150" width="10" height="90" as="geometry" />
        </mxCell>
        <mxCell id="dAmw7SrN8M_fuz1BZofJ-4" value="Корзина" style="shape=umlLifeline;participant=umlBoundary;perimeter=lifelinePerimeter;whiteSpace=wrap;html=1;container=1;collapsible=0;recursiveResize=0;verticalAlign=top;spacingTop=36;outlineConnect=0;fontFamily=Helvetica;fontSize=11;fontColor=default;" parent="oZl-ZMS8DpPu2iJ8mBZq-1" vertex="1">
          <mxGeometry x="400" width="50" height="440" as="geometry" />
        </mxCell>
        <mxCell id="dAmw7SrN8M_fuz1BZofJ-5" value="" style="html=1;points=[];perimeter=orthogonalPerimeter;fontFamily=Helvetica;fontSize=11;fontColor=default;" parent="dAmw7SrN8M_fuz1BZofJ-4" vertex="1">
          <mxGeometry x="25" y="150" width="10" height="90" as="geometry" />
        </mxCell>
        <mxCell id="dAmw7SrN8M_fuz1BZofJ-6" value="добавляет товар&lt;br&gt;в корзину" style="html=1;verticalAlign=bottom;endArrow=block;rounded=0;labelBackgroundColor=default;strokeColor=default;fontFamily=Helvetica;fontSize=11;fontColor=default;shape=connector;entryX=-0.271;entryY=0.549;entryDx=0;entryDy=0;entryPerimeter=0;exitX=1.186;exitY=0.552;exitDx=0;exitDy=0;exitPerimeter=0;" parent="oZl-ZMS8DpPu2iJ8mBZq-1" source="dAmw7SrN8M_fuz1BZofJ-3" target="dAmw7SrN8M_fuz1BZofJ-5" edge="1">
          <mxGeometry x="0.0046" width="80" relative="1" as="geometry">
            <mxPoint x="167" y="252.01999999999998" as="sourcePoint" />
            <mxPoint x="296" y="252" as="targetPoint" />
            <mxPoint as="offset" />
          </mxGeometry>
        </mxCell>
        <mxCell id="dAmw7SrN8M_fuz1BZofJ-7" value="Оформление заказа" style="html=1;verticalAlign=bottom;endArrow=block;rounded=0;labelBackgroundColor=default;strokeColor=default;fontFamily=Helvetica;fontSize=11;fontColor=default;shape=connector;exitX=1.383;exitY=0.531;exitDx=0;exitDy=0;exitPerimeter=0;" parent="oZl-ZMS8DpPu2iJ8mBZq-1" source="dAmw7SrN8M_fuz1BZofJ-5" target="eaqfeyOQdA16AjFiiZpa-1" edge="1">
          <mxGeometry x="0.0046" width="80" relative="1" as="geometry">
            <mxPoint x="177" y="262.02" as="sourcePoint" />
            <mxPoint x="610" y="198" as="targetPoint" />
            <mxPoint as="offset" />
          </mxGeometry>
        </mxCell>
        <mxCell id="eaqfeyOQdA16AjFiiZpa-0" value="Страница оформления заказа" style="shape=umlLifeline;participant=umlBoundary;perimeter=lifelinePerimeter;whiteSpace=wrap;html=1;container=1;collapsible=0;recursiveResize=0;verticalAlign=top;spacingTop=36;outlineConnect=0;fontFamily=Helvetica;fontSize=11;fontColor=default;" parent="oZl-ZMS8DpPu2iJ8mBZq-1" vertex="1">
          <mxGeometry x="540" width="50" height="440" as="geometry" />
        </mxCell>
        <mxCell id="eaqfeyOQdA16AjFiiZpa-1" value="" style="html=1;points=[];perimeter=orthogonalPerimeter;fontFamily=Helvetica;fontSize=11;fontColor=default;" parent="eaqfeyOQdA16AjFiiZpa-0" vertex="1">
          <mxGeometry x="20" y="150" width="10" height="210" as="geometry" />
        </mxCell>
        <mxCell id="EbehZoFBUcGNDGOkhnTs-0" value="Spring&lt;br&gt;" style="shape=umlLifeline;participant=umlEntity;perimeter=lifelinePerimeter;whiteSpace=wrap;html=1;container=1;collapsible=0;recursiveResize=0;verticalAlign=top;spacingTop=36;outlineConnect=0;fontFamily=Helvetica;fontSize=11;fontColor=default;" parent="oZl-ZMS8DpPu2iJ8mBZq-1" vertex="1">
          <mxGeometry x="680" width="40" height="440" as="geometry" />
        </mxCell>
        <mxCell id="EbehZoFBUcGNDGOkhnTs-1" value="" style="html=1;points=[];perimeter=orthogonalPerimeter;fontFamily=Helvetica;fontSize=11;fontColor=default;" parent="EbehZoFBUcGNDGOkhnTs-0" vertex="1">
          <mxGeometry x="15" y="150" width="10" height="210" as="geometry" />
        </mxCell>
        <mxCell id="EbehZoFBUcGNDGOkhnTs-2" value="Обновление&lt;br&gt;&amp;nbsp;данных" style="edgeStyle=orthogonalEdgeStyle;html=1;align=left;spacingLeft=2;endArrow=block;rounded=0;entryX=1;entryY=0;labelBackgroundColor=default;strokeColor=default;fontFamily=Helvetica;fontSize=11;fontColor=default;shape=connector;exitX=1.167;exitY=0.242;exitDx=0;exitDy=0;exitPerimeter=0;" parent="EbehZoFBUcGNDGOkhnTs-0" edge="1">
          <mxGeometry x="0.7534" relative="1" as="geometry">
            <mxPoint x="26.669999999999618" y="200.0000000000001" as="sourcePoint" />
            <Array as="points">
              <mxPoint x="60" y="200" />
              <mxPoint x="60" y="250" />
            </Array>
            <mxPoint as="offset" />
          </mxGeometry>
        </mxCell>
        <mxCell id="EbehZoFBUcGNDGOkhnTs-4" value="" style="html=1;points=[];perimeter=orthogonalPerimeter;outlineConnect=0;targetShapes=umlLifeline;portConstraint=eastwest;newEdgeStyle={&quot;edgeStyle&quot;:&quot;elbowEdgeStyle&quot;,&quot;elbow&quot;:&quot;vertical&quot;,&quot;curved&quot;:0,&quot;rounded&quot;:0};" parent="EbehZoFBUcGNDGOkhnTs-0" vertex="1">
          <mxGeometry x="25" y="250" width="10" height="20" as="geometry" />
        </mxCell>
        <mxCell id="EbehZoFBUcGNDGOkhnTs-5" value="Проверка наличия&amp;nbsp;&lt;br&gt;товара" style="html=1;align=left;spacingLeft=2;endArrow=block;rounded=0;edgeStyle=orthogonalEdgeStyle;curved=0;rounded=0;" parent="EbehZoFBUcGNDGOkhnTs-0" target="EbehZoFBUcGNDGOkhnTs-4" edge="1">
          <mxGeometry relative="1" as="geometry">
            <mxPoint x="30" y="230" as="sourcePoint" />
            <Array as="points">
              <mxPoint x="60" y="260" />
            </Array>
          </mxGeometry>
        </mxCell>
        <mxCell id="EbehZoFBUcGNDGOkhnTs-3" value="Запрос о наличии&lt;br&gt;товара" style="html=1;verticalAlign=bottom;endArrow=block;rounded=0;labelBackgroundColor=default;strokeColor=default;fontFamily=Helvetica;fontSize=11;fontColor=default;shape=connector;" parent="oZl-ZMS8DpPu2iJ8mBZq-1" target="EbehZoFBUcGNDGOkhnTs-0" edge="1">
          <mxGeometry x="0.0046" width="80" relative="1" as="geometry">
            <mxPoint x="570" y="200" as="sourcePoint" />
            <mxPoint x="570" y="208" as="targetPoint" />
            <mxPoint as="offset" />
          </mxGeometry>
        </mxCell>
        <mxCell id="oeZ__VWwLOXFQG1_txWZ-0" value="Сообщение о наличии&lt;br&gt;&amp;nbsp;товара" style="endArrow=open;endSize=12;dashed=1;html=1;rounded=0;labelBackgroundColor=default;strokeColor=default;fontFamily=Helvetica;fontSize=11;fontColor=default;shape=connector;entryX=0.198;entryY=0.775;entryDx=0;entryDy=0;entryPerimeter=0;" parent="oZl-ZMS8DpPu2iJ8mBZq-1" source="EbehZoFBUcGNDGOkhnTs-0" target="eaqfeyOQdA16AjFiiZpa-1" edge="1">
          <mxGeometry x="0.0343" y="-15" width="160" relative="1" as="geometry">
            <mxPoint x="279" y="244" as="sourcePoint" />
            <mxPoint x="32" y="244" as="targetPoint" />
            <mxPoint as="offset" />
          </mxGeometry>
        </mxCell>
        <mxCell id="oeZ__VWwLOXFQG1_txWZ-1" value="Сообщение о покупке" style="endArrow=open;endSize=12;dashed=1;html=1;rounded=0;labelBackgroundColor=default;strokeColor=default;fontFamily=Helvetica;fontSize=11;fontColor=default;shape=connector;exitX=-0.049;exitY=0.904;exitDx=0;exitDy=0;exitPerimeter=0;" parent="oZl-ZMS8DpPu2iJ8mBZq-1" source="eaqfeyOQdA16AjFiiZpa-1" target="oZl-ZMS8DpPu2iJ8mBZq-3" edge="1">
          <mxGeometry x="0.0343" y="-15" width="160" relative="1" as="geometry">
            <mxPoint x="289" y="254" as="sourcePoint" />
            <mxPoint x="42" y="254" as="targetPoint" />
            <mxPoint as="offset" />
          </mxGeometry>
        </mxCell>
      </root>
    </mxGraphModel>
  </diagram>
  <diagram name="Администратор" id="2X0a46i2pi9dJDA1WSmZ">
    <mxGraphModel dx="2003" dy="1698" grid="1" gridSize="10" guides="1" tooltips="1" connect="1" arrows="1" fold="1" page="1" pageScale="1" pageWidth="827" pageHeight="1169" math="0" shadow="0">
      <root>
        <mxCell id="2ULMRb8HKuBNTEMutL6X-0" />
        <mxCell id="2ULMRb8HKuBNTEMutL6X-1" parent="2ULMRb8HKuBNTEMutL6X-0" />
        <mxCell id="2ULMRb8HKuBNTEMutL6X-3" value="Администратор&lt;br&gt;" style="shape=umlLifeline;participant=umlActor;perimeter=lifelinePerimeter;whiteSpace=wrap;html=1;container=1;collapsible=0;recursiveResize=0;verticalAlign=top;spacingTop=36;outlineConnect=0;fontFamily=Helvetica;fontSize=11;fontColor=default;" parent="2ULMRb8HKuBNTEMutL6X-1" vertex="1">
          <mxGeometry x="20" y="-30" width="25" height="430" as="geometry" />
        </mxCell>
        <mxCell id="2ULMRb8HKuBNTEMutL6X-4" value="" style="html=1;points=[];perimeter=orthogonalPerimeter;fontFamily=Helvetica;fontSize=11;fontColor=default;" parent="2ULMRb8HKuBNTEMutL6X-3" vertex="1">
          <mxGeometry x="7.5" y="140" width="10" height="160" as="geometry" />
        </mxCell>
        <mxCell id="2ULMRb8HKuBNTEMutL6X-6" value="Новостная лента/Каталог/&lt;br&gt;Избранное" style="shape=umlLifeline;participant=umlBoundary;perimeter=lifelinePerimeter;whiteSpace=wrap;html=1;container=1;collapsible=0;recursiveResize=0;verticalAlign=top;spacingTop=36;outlineConnect=0;fontFamily=Helvetica;fontSize=11;fontColor=default;" parent="2ULMRb8HKuBNTEMutL6X-1" vertex="1">
          <mxGeometry x="120" y="-40" width="50" height="440" as="geometry" />
        </mxCell>
        <mxCell id="2ULMRb8HKuBNTEMutL6X-7" value="" style="html=1;points=[];perimeter=orthogonalPerimeter;fontFamily=Helvetica;fontSize=11;fontColor=default;" parent="2ULMRb8HKuBNTEMutL6X-6" vertex="1">
          <mxGeometry x="20" y="150" width="10" height="90" as="geometry" />
        </mxCell>
        <mxCell id="2ULMRb8HKuBNTEMutL6X-12" value="Выбирает товар" style="html=1;verticalAlign=bottom;endArrow=block;rounded=0;labelBackgroundColor=default;strokeColor=default;fontFamily=Helvetica;fontSize=11;fontColor=default;shape=connector;" parent="2ULMRb8HKuBNTEMutL6X-1" target="2ULMRb8HKuBNTEMutL6X-7" edge="1">
          <mxGeometry x="0.0046" width="80" relative="1" as="geometry">
            <mxPoint x="30" y="155" as="sourcePoint" />
            <mxPoint x="149.5" y="173.0999999999999" as="targetPoint" />
            <mxPoint as="offset" />
          </mxGeometry>
        </mxCell>
        <mxCell id="2ULMRb8HKuBNTEMutL6X-13" value="Изменение данных&lt;br&gt;товара" style="html=1;verticalAlign=bottom;endArrow=block;rounded=0;labelBackgroundColor=default;strokeColor=default;fontFamily=Helvetica;fontSize=11;fontColor=default;shape=connector;" parent="2ULMRb8HKuBNTEMutL6X-1" target="2ULMRb8HKuBNTEMutL6X-14" edge="1">
          <mxGeometry x="-0.0657" width="80" relative="1" as="geometry">
            <mxPoint x="149.07142857142867" y="156.79999999999973" as="sourcePoint" />
            <mxPoint x="286" y="202" as="targetPoint" />
            <mxPoint as="offset" />
          </mxGeometry>
        </mxCell>
        <mxCell id="2ULMRb8HKuBNTEMutL6X-14" value="Страница товара" style="shape=umlLifeline;participant=umlBoundary;perimeter=lifelinePerimeter;whiteSpace=wrap;html=1;container=1;collapsible=0;recursiveResize=0;verticalAlign=top;spacingTop=36;outlineConnect=0;fontFamily=Helvetica;fontSize=11;fontColor=default;" parent="2ULMRb8HKuBNTEMutL6X-1" vertex="1">
          <mxGeometry x="260" y="-40" width="50" height="440" as="geometry" />
        </mxCell>
        <mxCell id="2ULMRb8HKuBNTEMutL6X-15" value="" style="html=1;points=[];perimeter=orthogonalPerimeter;fontFamily=Helvetica;fontSize=11;fontColor=default;" parent="2ULMRb8HKuBNTEMutL6X-14" vertex="1">
          <mxGeometry x="20" y="150" width="10" height="150" as="geometry" />
        </mxCell>
        <mxCell id="fq6N4oAzn2oITsgghJx2-2" value="" style="html=1;points=[];perimeter=orthogonalPerimeter;fontFamily=Helvetica;fontSize=11;fontColor=default;" parent="2ULMRb8HKuBNTEMutL6X-14" vertex="1">
          <mxGeometry x="30" y="250" width="10" height="9.61" as="geometry" />
        </mxCell>
        <mxCell id="2ULMRb8HKuBNTEMutL6X-18" value="Передача измененний&lt;br&gt;" style="html=1;verticalAlign=bottom;endArrow=block;rounded=0;labelBackgroundColor=default;strokeColor=default;fontFamily=Helvetica;fontSize=11;fontColor=default;shape=connector;exitX=1.296;exitY=0.309;exitDx=0;exitDy=0;exitPerimeter=0;" parent="2ULMRb8HKuBNTEMutL6X-1" source="2ULMRb8HKuBNTEMutL6X-15" target="fq6N4oAzn2oITsgghJx2-0" edge="1">
          <mxGeometry x="-0.089" width="80" relative="1" as="geometry">
            <mxPoint x="167" y="212.01999999999998" as="sourcePoint" />
            <mxPoint x="422.28999999999996" y="159.4100000000003" as="targetPoint" />
            <mxPoint as="offset" />
          </mxGeometry>
        </mxCell>
        <mxCell id="fq6N4oAzn2oITsgghJx2-0" value="Spring&lt;br&gt;" style="shape=umlLifeline;participant=umlEntity;perimeter=lifelinePerimeter;whiteSpace=wrap;html=1;container=1;collapsible=0;recursiveResize=0;verticalAlign=top;spacingTop=36;outlineConnect=0;fontFamily=Helvetica;fontSize=11;fontColor=default;" parent="2ULMRb8HKuBNTEMutL6X-1" vertex="1">
          <mxGeometry x="400" y="-40" width="40" height="440" as="geometry" />
        </mxCell>
        <mxCell id="fq6N4oAzn2oITsgghJx2-1" value="" style="html=1;points=[];perimeter=orthogonalPerimeter;fontFamily=Helvetica;fontSize=11;fontColor=default;" parent="fq6N4oAzn2oITsgghJx2-0" vertex="1">
          <mxGeometry x="15" y="95" width="10" height="205" as="geometry" />
        </mxCell>
        <mxCell id="fq6N4oAzn2oITsgghJx2-3" value="Обновление&lt;br&gt;&amp;nbsp;данных" style="edgeStyle=orthogonalEdgeStyle;html=1;align=left;spacingLeft=2;endArrow=block;rounded=0;entryX=1;entryY=0;labelBackgroundColor=default;strokeColor=default;fontFamily=Helvetica;fontSize=11;fontColor=default;shape=connector;exitX=1.167;exitY=0.242;exitDx=0;exitDy=0;exitPerimeter=0;" parent="fq6N4oAzn2oITsgghJx2-0" target="fq6N4oAzn2oITsgghJx2-2" edge="1">
          <mxGeometry x="0.7534" relative="1" as="geometry">
            <mxPoint x="26.669999999999618" y="200.0000000000001" as="sourcePoint" />
            <Array as="points">
              <mxPoint x="60" y="200" />
              <mxPoint x="60" y="250" />
            </Array>
            <mxPoint as="offset" />
          </mxGeometry>
        </mxCell>
        <mxCell id="mCbq2p-dm23yrrmObnVZ-0" value="Оповещение об &lt;br&gt;успешном изменении данных" style="endArrow=open;endSize=12;dashed=1;html=1;rounded=0;labelBackgroundColor=default;strokeColor=default;fontFamily=Helvetica;fontSize=11;fontColor=default;shape=connector;exitX=-0.071;exitY=0.894;exitDx=0;exitDy=0;exitPerimeter=0;" parent="2ULMRb8HKuBNTEMutL6X-1" source="2ULMRb8HKuBNTEMutL6X-15" target="2ULMRb8HKuBNTEMutL6X-3" edge="1">
          <mxGeometry x="0.0343" y="-15" width="160" relative="1" as="geometry">
            <mxPoint x="140" y="292" as="sourcePoint" />
            <mxPoint x="-30" y="292" as="targetPoint" />
            <mxPoint as="offset" />
          </mxGeometry>
        </mxCell>
      </root>
    </mxGraphModel>
  </diagram>
  <diagram id="-rB5iclNbb40GKOAyu21" name="Архитектура приложения">
    <mxGraphModel dx="1674" dy="796" grid="1" gridSize="10" guides="1" tooltips="1" connect="1" arrows="1" fold="1" page="1" pageScale="1" pageWidth="827" pageHeight="1169" math="0" shadow="0">
      <root>
        <mxCell id="0" />
        <mxCell id="1" parent="0" />
        <mxCell id="lG2mJXNDVjrHXC9hDr_K-1" value="User" style="sketch=0;outlineConnect=0;fontColor=#232F3E;gradientColor=none;fillColor=#232F3D;strokeColor=none;dashed=0;verticalLabelPosition=bottom;verticalAlign=top;align=center;html=1;fontSize=12;fontStyle=0;aspect=fixed;pointerEvents=1;shape=mxgraph.aws4.user;" vertex="1" parent="1">
          <mxGeometry x="60" y="550" width="78" height="78" as="geometry" />
        </mxCell>
        <mxCell id="lG2mJXNDVjrHXC9hDr_K-2" value="" style="shape=image;verticalLabelPosition=bottom;labelBackgroundColor=default;verticalAlign=top;aspect=fixed;imageAspect=0;image=https://storage.yandexcloud.net/cloud-www-assets/blog-assets/ru/posts/2022/03/microservices-3.png;" vertex="1" parent="1">
          <mxGeometry x="190" y="20" width="520" height="293" as="geometry" />
        </mxCell>
        <mxCell id="lG2mJXNDVjrHXC9hDr_K-3" value="" style="shape=image;verticalLabelPosition=bottom;labelBackgroundColor=default;verticalAlign=top;aspect=fixed;imageAspect=0;image=https://habrastorage.org/r/w1560/webt/11/rv/6z/11rv6zm-vr22tsqvhwqx7gimupw.png;" vertex="1" parent="1">
          <mxGeometry x="720" y="20" width="417.42" height="293" as="geometry" />
        </mxCell>
        <mxCell id="lG2mJXNDVjrHXC9hDr_K-4" value="" style="shape=image;verticalLabelPosition=bottom;labelBackgroundColor=default;verticalAlign=top;aspect=fixed;imageAspect=0;image=data:image/png,iVBORw0KGgoAAAANSUhEUgAAA+wAAADuCAMAAACUJ30sAAAAAXNSR0IArs4c6QAAAARnQU1BAACxjwv8YQUAAAMAUExURf///wAAAPf37+/v7wAIABAIEN7m5hkZGc7Wzt7W3iEhISkxMUpSSs7Ozjo6QjoxMVpSWr29vUpCQoyMjLW1tZyclMW9xSEpKa2lrYyUlHtze1pjWmNja6WlnHuEhHNra1IZWr1C5r1ChIRC5oRChL0Q5r0QhIQQ5oQQhL1Ctb1CUoRCtYRCUr0Qtb0QUoQQtYQQUr3vY+9aa+9aEO8Za+8ZEO+ca++cEGNCGWMQGQhCGcXmpTEZWrV7lDFCEO/ea+/eEFK9EBm9EIxzEIy9EO9anO9aQsWEte8ZnO8ZQu+cnO+cQhDvpRCcpRDFpRBzpVqMa8VCGYRCGYQQGcUQGaVCGaUQGb1zEL29EO/enMWc5u/eQu8Z75yc5sVz5u8ZxZxz5lJzOlLvEBDv5hCc5jpzaxnvEBlzOoxzQozvEFJzEBDF5hBz5hBzaxlzEJzmtRlC7xlCrRkQ7xkQrVK9MRm9MYyUEIy9MVK9cxm9c4y9c5zmlBlCzhlCjBkQzhkQjFK9Uhm9Uoy9UjHvpTGcpXPvpXOcpZx7tTHFpTFzpXPFpXNzpVLvpVKcpVLFpVJzpe+t7+9K7zoQEO977++txe9Kxe97xcVza71zQr3vEJxza0pC70pCrUoQ70oQrb2UEL29Mb29c0pCzkpCjEoQzkoQjL29UnPv5lLvc3Oc5lKUOlLvMTHv5jGc5jqUa7Xv5hnvMRmUOhnvc4yUQozvMYzvcxlKa1KUEDHF5jFz5hCUaxmUEHPF5nNz5rXF5hAZa1Lv5lLvUlKc5pTv5hnvUozvUhlKSlLF5lJz5pTF5hAZSsWUa72UQr3vMZyUa+/vxZy9nO//Ou//ve/WxXuUa72llDoQMcW9nDpKY87m71JCY8695py9vQgIKYxzlObW91JSawgZKZSltffe9ylKMSEQMQgAIUJKMQgZCM7vziEIEO/W5lpSSu/W3lpCQvfv5s69veb39xAIACEhCIyMnDpSQhkZCN7v9869zub//wAIEEpSWhAAAPf3/+/v9wAAAMdcAokAAAEAdFJOU////////////////////////////////////////////////////////////////////////////////////////////////////////////////////////////////////////////////////////////////////////////////////////////////////////////////////////////////////////////////////////////////////////////////////////////////////////////////////////////////////////////////////wBT9wclAAAACXBIWXMAABcRAAAXEQHKJvM/AABbiElEQVR4Xu29aXPiuvY9jCwM2MF4wj+MMfj7f5r/+/Pi1k2Kqjx1TrpJJV2VC+k+9ay9JTMkgG2GNNBeJOB51NqTpK1GjRo1/lxI/XsU/JMcpUaNPxnyOlhUc71GjRo1alwTfqfekpaeqFGjxm3D0L81atSoUaNGjRo1atSoUaNGje1wzhQos+paqxqXij+1bFotPXFiWHUErsalolZENWrUqHEWHFvTfiWN8GpcJ+bfZGump2sciz+SrI7+BZzbvH/Hl8bvvLPTtNZyssAG3iM9fw7IcJQuMdIlIwrjdBT6cTwcpb5a9MWo+4OcCKkI1EuVYSDskCdvB8bbOPWEcHt2+PsKTCfWE0fAGZlCwz0f3VvLkxDUZcueniVUKh/neuI19Q/Fq1gw2WVAL3PIy84F+dUVIjK0uYwS3DUT5uIgQy/dF5fuuHQLtucN6PeHXnpyWHhcr2Q/0Jep1DgVjPtX+952sbKSnDncoNlrYv9WK+264QrzmX5DFCIvOW/3gK6Z6qkvQoqbcpPJOElQYt3z3txRkLjQPcJIkswKIpRy6ZNQPtedgNj3TmvW+qcFuaxrrwxP2J1/5LeZ9CuS/XDs96fn+vcY/JkC4060O/ixYMCdwNrcC/kiunryaxCBF6l6rcadEAlPXSRiIZ705DYkuJHcgibtO9bTp0bLFa+/9HQOCABPTTlfRva9mMmPl1gdXx2du5Bo2J0wSaVMoDnUgjIojglvvbn7Kuc4HtBEYmlKYMZdNrT4eHX7X8WH9hnyDO01rOa+R2OA36vVuJN3NSX9uB/n0Sv6ceLlrFoZr0qZFYe2HekImxM7DT+17cmmjTCzxf1Hq8F4FyM1dSFk/63gx3m1gXxbtEF2qy2a2oyUSZZkYYyvJEaxtvq+KtyzJFH3aI3T4D0Zq0LhZH3+bVhJ1mpYWZplCfZMH4MHtXwNMzPXEV8DeCYrfjdG9kS9qTD13DRRpd6IUquf9VwvVLfjp7j40V+Tfm5T+2EaBNlQ3Xk8ilqh677rnU+I/sfY10YEH3p/fXUSsuMllQMvPL642A1i8lpg7dNsI2QvH7OeuthIx94CniXpwbPmaL3gdmxhr88ToNkV2edfZ8ZfLvb4WlcA+Oy4Abx5Lb5Jxy/xxsWQzXuK09CrlkNdakxmeZKrHIh9p9FpN9VacyEePyvAzP1KSzq/4k04Hi6viX8u5Si/mKbZJt8c+cYKak9yBAgBUwD80Td/6vuYP4d41utYf3ogMZtfG5B0I3cuLuidBAPekxD37uNCy4VULFygLYRNq/025rsptua4G4sJO00wr2SFAsz4vz+SvfF+YWb8b8Wnp3NVuBNNn6NzubaCf+hFP4YRBbJxa9Aq7CFS0SKbmNxHexhh5WA2pzLlvnG5dITZakjHcWIbcsBxnrcFl43PAuB86Jif1RRXLnVxkeAtcYJ0pkg6Dqk50An+cDOMoow4QRQB1xeYx1pmO1VCuQ9OBAZN6GBfBOsVNP7kOZEEiBpGB++O5DTdSYCNSJiRdE5FtzFvzK0RM9TBsyBzgKL69Bbx0wzxhvqQc2tmCt9/HMcP/VXLBNnNyX6dmv1WWsmfohICr92lor70CcFmFalDaULhwRsmg9yHxqBtJAoemfMybYq/jIYELVRhgdjXAb6JsNXEZxwRR7Uqtx17awtXT66Am2LFBx1G7MbdqaKM5W7DeIOdw88UD2HI9+TSTc1BIKIIntOAZACos06Rc2N2L8Sjnl7i2RSL/D21cVHQ7HaHni+sE7qjVL9RZ0ETMNeUH4C1JnaDZlcMhjhbvvnGfKYcA8B1pxndKvZwczvmOjW7cYrg/XlQyfc/RaBAG6728pGgnKtgbypecHyl2eHTAygW0CNazoMeccNA+VcGZkeIjCewYifZj8Bb5Xt9boqenlzCeREDNeWbVHJBdltJfpCg1fg20MYAloPs4Li2nlVEeqpsYL73Lyz2VFOiQ3IrgL5alCmFi/ekORkKs9MwnhSJDUVzvBNDidouWyUQdUpSQFpj6xwU6QfIrQHUo7CWD0GdqMbJYChx+nXAa0dZWjKVS5F6pSjR8CPxhkF2LMRWKD7YPIFFIbkUgQ8gP4qCNKylQQBKtNXESVHdGAOdP2l23I0LGQlAXeKWMa9vHNfvN+RAme8WZFifNTmWSdwdND6WB7lfAGfgE/vOhxYk7ac7wYM3gzAMu39Nmc55bIVpj1eSYXXvyXNfyGc3XLHoBUAvwGsE2XOhRm8r5zKA+1xE5IrFHOzjqozx0orBgWuynxWVFdoebLMEyGcnD3Zpl6LUq0D6UrPHxImgb2qyN03TtG2SECg1GTR96JoLCnOpwjbrHaPZT1irAYX4SbNTwA2XD+CCQXPcna41sKg6ogWf1ZskA6yEJrdg1C7yjZtM9qna2LA/s+84QKToqc/AVako2xoMkHSFYI47oSskgJ2gL3x1DXj0EGJrwK25YqDON4MY29Dsy3c3FOKVjugtN8CBa7KfFadsYbqtQPHLhuRfNjBbM+O1zx7jhduyQ9qM3MfcyqN2IJJceY287s7dRXbpDAs93RPeLRTi3drhZAc3CNmkrpX+3De6O11+4Yb4cxT9HKBIh32XHCjxgfhLbQyj/7Rkj11bPfStIC2razgJEy+SZHW83LdN27T/tv9ODWj2puYka/Z5IBav96/3JJOTxtwVTdd2x167bduv7LO76tFgzZpmh89O/r9CT510RM+JgQOfraFuDcA4czBxrurZHZQJ7byC7LkZv0CBgIDv+81mn6zitOGAJelwOAzDYRiFMddVuaMo8n0USN2wfifZcZJ9zcRODaO7VHYE2L1c7RA6vuP3wz6sVUnGryY7/PNn9llxeyHVYI8aThs+ut8fxth8GMHj7eXxCpB92VrnJMB17VGaYzz1pZvF78pZvSaNWDkgAKwXpzHzVGtFOcYtzfCalsKJSa4qXAHQe61Wb6OeHW8UZ4AQnOrY6Oph1dgFuXqYFwhbvWxSeSrAsyx3eNkQ6bDdPG4MA55HpAiWZYNbkg1zFWEtq6N2mvEU3F4WpS+Aik1pwKjHlUOTLxfRpazmu0QRmLsBi7wZKGKBEsvoA193kDfSwcFOW+yf1y/1M8iOXxpFEEvf5/SaNP/nUQSar5gIVYyrzfIoO1fFBcLU6jm6S/ACIczU2/qfKe5X74RqI5ZVpo8cBcAT+o9e8FCTvRhHFvAjdy8AaXYorTfYe9xInpqiKOd7xD47Nyt5xQRrdnIFddA3sgc+1cvoxjhgsloBl2AH2VEe389rp2zCecmj57gtkBlX+vZ3Xu/gDKg/L3wTpazlPVW6wTu+U1cIikSgSJPbqkHwvdLNTXMq4GCFDkklbMilz4AaFwt1RgPSlwxvkFD70nhD2Bc2tst3BkFEryTVIURVTUiigW8MN0yXDuOdZQHYvX5iaHZ61QwclrS8J15y+mNJTfbz4oQhqy34BqXBb5CaV1CtlAGvXBUrKHucmsoZlweUGpiCUOAw6dUshAJme+r6lmSHZr9XE5/AIb4vBO6grQQXiTD2TUHThEs92Iy7UneB9RBiuDbILlXP/g8HqUEo1XSOzBv84CAe7dw387s+FRxbS9gdwNXiWiaOM+SGPXRyLLIda/YWmaKNeUhS4X3DLzag95cIO4SzlVBoDlIMP27csoZ43XTptDTwHWpTu7Lb8XYxPwrDCfb0FvRC4wkMoiQMowiLcPuDRAcGalwhyAlXop3Ct2nfg/Gme1CqAB2RnUu836QN4QgLM/T98IXZ0cKc2hpkV2blbs3eGHp7S/TJQY1hml1c7RCFWN0msdtN/AgLiDJEkWboU4NAstAteLBjPwre23x39AgG2D0xwSvMksQY4d6b1OrwtLD2H7CFKwFMXL1YJKxqLcgjs22/4puuDZodxO3ivpp8o6tovEvCmWoWBFeh8Muk54Ed6X/9xBbFX5fw5tRmahWPZXztG6xxSnTyttQcl1XQAVkUF5QiGICsEkksUPnnJtkMF2UOZNduOMi+DNCZauL3w1gVeVPdZcPJ66y6dJfQ3fq2XSr0b6COhgpBs11D4DIeiLbeek/o/EyI8+eeZ4tqyP/wrSyUsoXYSiCIceGKjoEIRh5hopz1Wchrp31+XQNxP+ZbSTc0NSybHJ4Hg2/Voo5gp1j9uX9TjWuBdF1bC+t4YLuUpaSrS1Nkk+lqBbYK5XTcO8WX0LaFabvcE8zIBiPl5FrZRAdtx5lm/QmhznEAovfXxc+FsCnxg8KvKLXtQaqqsmCuxP6diXk+g0wG6aNtj9I0337s4YnkxmtPBAbm3WStHuzr0BknkyzeIGecJLH2qGPRlEY/CRWZ8T5ymbCC7/iO7gruwiWTw2T8cSPrmeoq8FErLFu4jl7iOzOSjbVmvyGUCREYDrfC/jrIPEZ0AKhzzs7cASi9UNJle6gHp25Kc0JAs3+m906sWtDthRwsKxsZ8nfYNDX+MByfm2Q7QPYKAebe5yZ5F4N4vSVcIdxyZLde89YXCrVmPxZWXOa5l0Q9yHwlVCM7NPuZLBrjIapA1W3oL1swlkFZzX6/eccdsyb7cTBUh/DT4LwVdcdBpqNLKypxJbK7edv4k0PVlR8D3EkFOb8lI81WhKPNx2O1Lrh81bggOOKLE04Ww7HNCmQ/X3Zc1TT1GHSScQUe+uNTmpM1anyE09wM91wC3qwKhvnb2fLeZ3Ufkxo3BViaF0f2C8HHbi01alw3rK6p+8rU+AAnik8ZualxWfgjXaZzpFyvUePCUVeR3SKUBK9FWo1N1CXi9vC/aQoZbrlf27evxqXhkuu/a5wIM1tklu+KOz1f48/EbyJ7bT58KfwmdQi9O7Ix3K3iEgrj7RLCkP/qqYuA5PxJNw2HhsE7oNeOlY1O3UP+8nAJ1m0dKvsi3Fw9++kKb3h0c9krwNf2lNyOS7iGPwI6udPJYE2yJOIRHzo0UDGN5kBjtObNRlep2PWUT+PT0mcS5n1GnDTJlErNt45UZ3XDCXneiLOEMjQypKOV9owam8pkqgkapxnmrUB1im/4QVChTwoj/RPIXuMPwqk1O+fCbPMoDpREx7FNj0ajFKbHxlrYplHNgLht/pdouMyxk6fXsWgUUyGCIdampvmEhY7K29QJFPtiykQlmpzZqSHdJqegoyHLidd593a/zZ1Q8h50lO6lar/3OpdjjdvCqTU7ZcwiKnJQjHkKmFMQmFNOTXS6ZB8LOAX0SIhB0HsMQEbOkkcknQZEZ1wW5dLGD5G90fiX0jOBfZSVyg7udKY2rFMkBp2n+A44T5ca5xlipa8Tc1G6uMpkX/ysagzUqHHBcKLiEWGqAOrQ9CkPzZgHZ+YBXCZWowO2UfZ3yALKd0uj3agE0Wner7PHeXRbpuYwNohgt0M4+Ez2OR05VUNI2EPJAy28gIsdM0+4F3AWi3dF9iGOT2IFsoyMAUrhWT2jjbUzmU6NPwwyquX+Z4DNqsusZdIEJY7lbNZEbzwvTXY29qeU6makyJnb39DlSvZ0FiwFoKFHRHaPpu5JOuA4yhF4YDYrrQ9As2NCa3aHFDutVqY4jWuL8/F2Nb4clxDxPxYjnZO9xhrAZuUWQKdjAt8q6TsFB9Kc7B3OjswaOc0VbsAjRXhLSsK+J6ccbLUsOiasd0q1JgdioarMO3wmyBS1h3XPR1Ka3RMDj7fH7j/4290yfGyNI1GSxLdA9rop/RaAzSqZBOxr0Noxm3pAJGasJju0Mw2QQItHObtZs1vtZQAcW5KOh0LvwgUYTH6q5OowFV7SMAyT8InDdjDQ7bDvO8P0RWt22BM0GjoIDkuCNfv/CdHr2Becq+5KsSVZbo3bwn4xDXY98gRULunwdp65vrUiO74y0PqTZufh1XJzSVkCHE9XUMOf+RvDIzg8dFKOR5gGpNnZ7MdJYMDzUGieWPjrwyjWOBFuQGPX2IcCm+zHmmYnl3o52uJSsw9n4KtlNRX5vFzh9mge9n2u2XXqCBr8SOEnHwgyoMnjLBBSaPYFFLzX9TxspzT7O45pduhMsAwgex4gLiZkM1T12WUdn6txU3Dc1VCkpwDYBU4D0Okw4PGt2QsXmw1sEfQoQg7Fv6nZu1z1NsrHpKTKMuxPobUQxwziria/vTmQFUXj8wmIDUN567AmcCacGbvCW7dnPLQCb1ceQ/O0j6bGHwvriDEWToglOcuiWLMrJz332fPDg3xYgW/AnTee/z8VjX/a8NmhlF911wGQ+4H1+4iMgnfa4J6q2trLgawm4w5O8KJNAxWNn3PcncQIzgThgNsDwFlyG3i78hjVCdkPx6qYzGr7qDFeL0hUp1SEMttUR+UWdNb+sCTYpXTz0mfX2ZRJRWuy06CHpJGpFNwJVw02oaLxyxEPSCUb7LA7ygenb9pjmo9fh0NhaWehrx8eALH5CXvwQMpYjSPBZ1cX1LrP/YnSgG1Ra/aDsSoml9Xz67dgPVFGmbqJM9VfgA3VyF4AcEyF2JaaXYzw3i2oSYqmM9kpiIsV7w1JIw7/xZsrn51Uuzl2GhY0utnnsD0khCI7jfAMvsJ0EBNsMcEvWA/Nrur1MaF8dn0BOJPW7Hzczqu+rvIA2etwc41jsFUzliHylm1OIAD6uSY+EcAubg/bsJraZxfCHqU0BDn5LUR2duLZ1+ZIu9qcrHT6oUGPRRebE9fHHHTjhjMQjSQ4wD5qLiueqNUMtYWHic8t8dQB2YxXbeWxGZ40kZ1NBYoR0G8FxCMSUzeHM2mND5AXmD/Ar2rbHQ1LafSTPPETHETG45OWaLBLa3a7DSOYfHY1RLPHMQqQXQ1UBgIPsLZt5z3Nx4l6Fb9C2xTNu8kzrs01B2RIYzOlrE2TfuOMmN50eXvHNrXbcNeG2DCiBGqf4GcjPJ7/JfqwMlz2k7tOnIyjX8L10nXwX3M1CscMRXogVO/dsw1t8LsRZUp4GPxoodmjRpxkifZ+W4keWnkeJdC4sqWHlF7H7C3ST6f1pn9bLCDmMz3QEfVxzevFWjkLbryN09co5K+GvLaoSKW3oBX7n5KbCppdN6o5CH/IU8rx7Wjb9zeLhMpnvzoRVumCb1NA78Sqnr1GIeaGdeww2L+5nktuMdRqXAS+QPAcqdlr1KhxGoDshuOf01a2mnm0/frQyZIzScOCtgo1apwFsbk4p50tk+vN0OqtN6o5Ke39q30mNa4ZmarKrvEZyXpzWSutG9jUuHKM8l5qNT4iFWIVHTdO2xyhRo3ToErgTbUqrbEF8dSttfnV4/xB6N+LToUKnI5tf327oivBsfVgNX4/Ktc4ObUFV6PGn4HOrZsCNWrUqFGjRo0aNWrUuCr8YY31q0DebNfEGn8mgrp+aQekW+egq3FLUElfa2yBbNY99mrcEh7q5rK7YC1z3teocQvQad5qfEat2WvcFnxT53Cr8REy8ereaTVuCa26c3WNGjVq1KhRY4XLyuq6lq+cKsml488cX3+WE/hYlpPn/qzxh8CwgE9NJ6j4SguFASvxJak8c9HhtQSsPQytxqxDR3Nw0HV04rHjR7ET42/csXx//DAex44fqwk/cixnjCJaiPO1AzGiIJkkk6AbZBm+usE7fXvu/VPX83hBGPPF0lfxbxypnfgo+A6SdDmP6VEwDAM9m397w8Qbx2HGR/h82JCuxqaj8jF63e/vrhB3ZlO8CPwv8gn8N03XbHe98z2sGheIUbvdHjz2pj03cPPvYOD2gsd70328f713g7Y7aAc9t/eItT2sf6Qp7HYQ7MC+b7vB3d/2QC9h2KYQCxr6gP/MtUHHl6CREfTW+6CGVTwH/r1TF3ITUMO812T/k7Ac6v8QKGZW+vuI1VKzbS7/2gv+phk1wcvx36TPy+Jl1zfkxbu+s5IwfL9sf3bpCnNgQ2O6wbQd3EE18oeuvE0T93+rBaU/blAWU/fdxZmLkGYfMAoCj75gN+Av6Lo8lXrpKBkF98LcS3YZ5qPV1LgJENm9KPoRRj8i/NPPjygIhllg2wMbwBf/foA3jIa7/rLw45L1vxDnCXlq/TMcW61Wi/4J1oy+8nn+Xl+9E7PWQDzpOysJPICyAzuC7BODPJx5o/FPQ0p9PbGjrnV1zWX/cBwaHmftf7VkY6bx61fehn991ee/T/iwbIPcE9HcT3Y9LF2NGwHKuvk5TkNFRBooGjP8zGcNY04zy898dsZBaPlqtoWOSoWT0qrDNEYVyH63v0XZtcW7km2vfg11C7obgxEU2HJXhknVAZgrjM8OzX5Tmi4p0uxmrdlvCnOQfZv5d63IqpK9wvjs0Ow3Rvb9mr1Fg1LWuCHcmGYPq5L926hbtkTfmmafiMX+V+/Et1Q0aoDs7WvzNfehshlfAdDsNzVuW1ag2a8ZdUqSLbDsAsftynBWst+cZr+pV7+Bo8l+i08mFsLUkzeBtCZ7aZxCs8/kGStmfiOsW0xf5IvbEu/DmuylcRLNnt5oL9hb1Oz9rfXs14usaj17Bdyaz14UjS+FrO7yfgJ8TYjBWdxWNL5bWbM/RGXv//bq2fdH4/00rRNOfg2cL/EaHPNTNF4661j1mLwGgI8VyQ4/JtGTRbi1evYinz0Vt2XJ7MQ5G4R+gtwGS/Jyvcm5sMVnd9b6nDVN86oiFUZlso/LZ5f903z27E8h+7mtaGlYjtWxIuognQSbPUz5+7EXJF7X9bA6xIadM/XTpmj8hxZ0DpHctd078XMhhD27pgZ2UL4VyX7CtvHXhiLNHtYdYY6FY/Wj5N11berlqPRnEbhDJKUkCNNJFHesE3Y87LTFywcxMkTx73x7k7LjdALh6qXXgeqa/f9O3DbecCg3R45zyeiToKgFnRx59fgZB0FacIDjLEm3E9z0Rq54SW0x8jyP0jTsg51kCdkFJyhIKMAfxTtctaUX+y6Cyor9QJsop4h8drYKs2USpfx324bVNXsjjkv3Zy/js1sDc+UWJObrGvMvDbfcgu53QTpxmj7ZpmnmyRtM0+umEXXjjn2fw2DPFAdzrIbF8TCSC+uIh1EUZe9PHux7kR/FNO2Bl0XOcYyHzz74cISJEKmebHSFO8NGseWEIy/K5fxznIy8kapzcVJM0iflYm2FqT2g6phOioVqHXZzQt6E21o/q6VDn0ta5I149smk48koHQjxmvBjiPQp/FEiG3IQ9GnGSYNUHcWF1MuczeI6r6zZKwCCsUQ9U7KSlcZAuG96+gJxyy3ovh6WE8dJGihyNpsL13WnoyyLO4fb4fOO5SRZ6k7BCQU39SZxJ/YPe29+U9gfxHu25qoFoodCbgubjQ2bXdZWbpxwvQwcOw0SBf02TzYTKvM5skZEGacIlPQs3+MnJZCyVlYMuCzpWZk4hk0Hc7WLnInXN8NRgTQQTjTxO8QRacPmw8bVY/UZyX5XZuwzA09LX1MsFpdsB9ea/VSQTuq1l0rYDTzfsQwpf+nVR+LXTDqO7wWDVeTcTWO/ejANZPvouIHsSwX2LlysJQraYYhT0QrQuOlNJqbgQH2ENbA7bNHEnG+KZur7nhBRC0uxXxBFoWXhESRRjF2I0RQSGyfYhmQKBQixZTzlVTi0G7esB1PYfFo1Vgu3d3eaTH2YHdQwANRvhy1rCEPnG2+jMatuxpdHKZ+dH4Ju2BOI6dezCd5NScFf2OutRglIP/k+ZRY2xVMaRh1KQHQWGC1rnKSe2VSctzO/oiohsn0okPDZlwpM8Q1LPFjzzoLse8dsDojzTput/UTZ/H8JE6b3SIgxZsgUoIVDISb021eLSaeDsFhKVjocCOyZV3NDAviUGqXN198XTZwi0NyaUODgma8Km+MuV9cIw2Szltw9bwu6MmTHNah2Srgnkm0RpX+N42yChTK0ZBx6Qy1NW1HqPXle+IZXICfkzXjRA6/z2behD5+yFafYbqI8paSv3lg/wn6Wdq6cKOZCNoHpIx437Z0dqDX7sZB+RN4kMAjS/hflFLdaLSd1mfBmGlU5J9jzsQUdNPuS7NDsKA8jZjKVXvyC0KqoeuIVe3qK7J54cSi1idKrVjKmg4LcTMVWqEiC0o95LKXyiTODl4ar6nL/JWKAuiRbjMbMJloF2owPxXcU6nscG1vTLRqNR9HsUKQOYmXK2+ToVdbs89IFvqRm10KRHh4eLZ5JDjA/FW32W5oenxUyq0keTkByYLkhCUY8Kg0SmxbdN8xElrJxXkPi0XOM1LngPLizhvGGDe8SWFRlnkKRz26l4d71fzpasGf5DaUPz1/9oAyrH3rkOJhBeQd+S9t4kH2pLeGzQ1945LkDMMfHWCTSMEyCLgonhEJXEaBLcsAxlSbPkZMdcPwwoVoGbAxbPQ0nI7V7a6D2x6F9ttHdIOgFA94wEO7ES5PkVdzJRudvyAZs4A5Q/GECCPupFwTTn+xnLCEHVcnuBEFZYwiavVwjk1C0n3FkvkFweJqlgYfHBqbCWxHBMIIPQ0dKxctESivjARRbtvCiYZSAtXjksLgSzEU9YjZReGSR02JD6I61dyOnRPZQXRMeKr0jyIghngd+lvJ6N0q0oFPStsZnWJHH0tlLD4yWnQBOOKLQXZCVLMHQr1t8dja6CV3W7KnSHg2rKWLo0hyYI13LBQLF11na5DmWZHeUrQNgfqm0zBafn8kuSfGhdAFwSZo2xQLfeZbTQ89Ih6fg+GPLg77EXhrmy/26IVO9nh2sKsELRlnNTon9wDxQk2babMc0ZvdE9r8oXAmkHJTII5ATYjRukDfEvVEFiBjwqpBWQSLzC7AgD2hOiV6YP0x2OgY1hJriiGwRAREbCwUo8tnXI7U1NtCiANbP+yD8Gst9N4zYa4PCbim6b9fsS7Kzzw4VAgsUsF6Z7CYU+ygMxw5sdZQyLhBdYbcoiLZVs8M8hwgM+1A/2Bg+OzhKNYiYycnOmh0z747vtJ7VpQfCc6hqckRFHee2IcYsUo4OFLiphjFynM765VevZx9XIHvptvF9CDJIEdK50Ox8N1abyA4DiOviZgs6q6X8IVAfvkjrVYXuQ27SGLGUJY2NVZBv4D+vwxzMeHXL6ZLsFswdEgE4p3p0eJLFxbBIs6MgKGFU4wPYfncPiIefA1YfVmO7TMlEqdjis6sSA6hovKuTsVsLvH1PKSzMUa05mMtcwdIZWdfKBOgk7O3lZEdhHVFto5qH5+/MpYHSb1oUd+PLZM2OGbV/w6djB+KBZ0KWOFzXCCbjzhwwXl91FMJgXuEgzV6SweU1e+PtVQwgFOkSDU321itJzCftb8+ftK6OwiyA2QOiQop2kySBdUPPLBI9vsGEdsAG3UnmZalNBgGuePSQDOOEjxzR5hORYocZPWC3N8Uf9E4x2Yt8djhNZR/NH4U+zFg7iC6C6QoRSkgJb3S7Ztcah5hFxRAGKZcKFEQHzKVKNuCOnEt4mDwDPnfI7VQbJqqgo+yRpjfu9UbKFc+dArB23HjThic8BL/RwcVwJBBXhXME2sJIyCa17sF1clY5Q6Z2eklWKXNXo7pmlwO7rCmG51DOZ8d1UdiNr36p2dmMD/J4Iue3N0JufwBmPjYa/yz9IxWgI899RfYc5jORXQPCsvEDZJdtk/Q9P3Bh/hQ0eM6AH+ReFGl2K/rxu63USwQ95GSvlPx6zHFRdqGFCrbsq2dnn53cdOJnyyQ9jz1cFKQWmG9/wxc7kOABlVGKvaH89NsqhoQrIDsQ6par5HFgIj/cUJQhSQW9T5uw8odmx7XCnZ+Gs7fQFq+wdvNovKpnf8HeuK43V7TZexCeNSdzakP5HNCCzij93sprdr51FTmca5+99TddPSwlmtFkh8gKkriF45JIHQh3kmUUoIPN/iACttzZnffEYJKF4ySEU2NAEt5Hvt/3E5a6kZjILh7UWJHdHr9Z8awhWyWGrDhBPbujRxLK/8cwVWgqbsSRRXYLrtB3Ok4cN/wothrG/2g4oI1dNv+9JNq+Yv3f8XEUKkP46BPif5isb7Pt/yTJclHG7SU/LgcOqFDE9i2afbRmxuct6EDiYWZy7TcEgLgLU3DP9LEpbt1s31NgEkXPgLZ+pfYyFDXmEs+PBc+nGUQ92hhCA3MvNvcBykZ0ZL5E+OwUF6AQHbUTsv8PMz1Ndmg3g2QMmwnPC06ah0PjKPhiUbEEeFOV7OUBs6G0DwuPRG278tmJmnnHIjzSlO5ZCQ+IVPbZWY92TLonXaOGe4cpkCzHtOrIOXT4dzUz/YmnHArPI9EKM57idBT0JDz3iwv2qECzF8Oi2oUN0GvVvyYN1olv8ZPiM9S00rTJPDsRmjZOoMpRaZzAyYZddZlNoC2bKq32AhxSlvcKuJ2l5OJ6dlLbjAUbplzpC7w6xHsFisCRjWsQW3FIJS3g0POE1EsjXSwV2iF5hWwKECdUx/mYSkgz4ceZ6b70vgkt2HLNAZHB6JrcGjXmt3z/QdWel+yl2sYrhPmTz312vAv8vos2M9oyIePG4oULH+gNskv7RRGVmwpEyjYiQbcWV0jMwMAcG1MkGXFEepr0nB7oTS1DFllzo0ZyO4pGhCmG8Re9hEow1eCcGx+96jCsDqN/9PJtUOXpCMxnA+1pXh78wtG6oNlV+44VZH+lFZ77uDMJn9uPkslQhYQbxkMygSGJjQIx8TX6+lSOHz086yNKjrMRnHgy8VEY+3jcVl/tgVUtWKNqAyMPqhvGqrVnLocNmjAMtYXBc/i1cAx9RUtU99krAOq4FNmlNCKYPXpGm/EqGg/Lh9z+WSAGBvE0xD35MFAgcFs2+G80LAjGYcO6014Akx0vgNZJGFLQ97GWA3BlIDh+oAyTbcSanQyeLsxn2FYlbJAT5KCDcRCrt1kCcd/vW3h98DI2P04sO3qbynCWR4E/xh+n70vHtyyn7+ht/Ni3HB/PngXtUcA7K23dfTW8oksj6zjn1i6gkO9g0LuukyPkRvdvRfVofAXM83rx/ZDfB4OVewHNzrRvmfSswELx+DAecLNg6gTkTlxh3lOojQJ0r/c2bKSBpPYa6j4ScYdvSFIxuCOhANmbt6AD2XEQ0Btyg0rhHf1AVJh0DK+EwVqUg67RKiTHSAuea8CEA5pHAmQ//iBngid+6Kkd2OKzfwLIvuOVusrhZpRjwplRXbMbb7Oy6g1mfMHTZJAeFkHesdG4554A1FjhmTS7GZCdOWVtL5MevJm09f/ePdl484KA8hOlkdEYmdNUGYvDKTfCeR6Ro2QnVND6UyVIpBcQ9R9V199+Tzn5z6NpL/BKWSBF0fjYHqxk+XawX3YlgDOUv5TDQdaYnrw0wBss1uxcmvaB2l3ryQ/orzXUi8o22jsnqkfjHTs3uJewPjoHGnC0VV1gAZxxuNaE0tGH/+ZD2VKArhOFz8vOj06fCyBIZ6yPpf75Esgk/aiHS2jvfZiIl72hJngNRQU7Fb2yovK3wxfN45UyJIZuZnJpsB4LPQxodmr9vhe7zfiLw6zypUoKlW0iuQ+3pgTpLx3xgxHn9eyXgKJoPFyCImPtmjT7RFdwHAWKh2bUSfHS4Nzhyoo1u71Dka3g9y/WT/kAJ+93VxrwqT+S3X8RP6db6mT94wOxD7tspN+BtDi7bJFmH12RZk9LlPRCPIBSolxL9K+EpKpo3dBsN6DZL8DVPhngVlfsz+40ufHABiiM9vNu9LGvcF80P8qFqnA3G/z9XqQFmn3yUmjJjA7IUfi7kApdt3kMoNltIczf3gFmA3Lcw2VFeSO0nSjjs18RDvA4nOdPxZW66hDsyfP6S8Wz2ujncwAmiwt62oU56LZn/lwHzPir0exZmZ6ARRgLwZV4ZqWsEWdFK3ZxPYmE5C2IH8dcdXszwO2cILxA9ZEKzbtkZc/DCjrWZzcuyQA8vp7der0inz0tPRrIHkTUJGI+eSVNUKKR4tnRiRNYGsIj/7JMPfstkZ3aCOnJY0DPb4m7SGexxrM6luwXhez4tvHw2a9myObsFEUjFtxvygqpGakXHRvDOQotMJ3qcTmbM1BIdrDjUusNDwE0e0WffStgp61j4cX0hkH2W4pvGI9Ha/bGf69Ks5+gaET5QYyHR5QMM508Hx8IOADSilNWSWaXM8ARymj2Eq2orwaQXYHKtQ/Pyg22wE30+j3oqBw562hPIwl/7ZYEI0TasW3jryoafxLN/rB2ED/kpOpt1/vi4U+t1L2DIyFMbzJeO3Ohz34iu/dSAM1+NlAXnVsiu+wVaHYZF3kt8ulP0+zjTbq0Io+Tqoh0HMWdL9CaViceZ9zt7N6bfLApymj2j5lqKuPjeE8Hjf9k5HsdNaImZFcBFtSD1rR5+Ly26oWJeYAn9gJu2k1p9mlhDrpFQemx7D9Ns38+iGFFXRXjebkPqH/YMeV3N6Rh+WHwxKIFJ0qcz20GvBL17EfGKGXmTlPPzbIR9UFvyGEwcN/VKP5OOlFFYUItvf1UZZBy0j5tttYRPcreGjJwuWT5U/V7GEizj1JGFsUPlLB99RUlD+Ox37Fi32rN+NOavVG+jbjTeu70Kb17xH/jLcy3f/gQjDdFdm+/ZqdEYEWv4po6wpxEs4dbJcY/fpTqBPLCdUdZ5jsnqnaRju88R2mW9Vw12JKw0+xTu2mFMpq9bKqlHTCo30fen73RCfQMDcgW6h7EDvfCTHWN/pBSMeC8q8dBnTupDxaWzL8XJ9zYg9JeybJu/VmIzyVev7ccPyGysdGtkb2oBd1j8f3+cT77drIzpBx6j4Olnui+e1kURr7jDyMVCtLbFaDFIz36YRiFw5QykC9h3wVeshzf9DNGRWSHKjxCkRKkK1zf6UBD4kCWK8y44/hQCrg3kJ29vj4nyBjpJikpPa91sqtcjEaPtIQn7jcySFZE9Xp2Qwg9tcJso+qtnfgqCnJjZMeL26/ZIfKKnHbvqlrQnTIavwOyA5pm95RDTYPZz1k1HnvutBdE727qJJkfx3GqetsT+gFlCsXXo22b5suGaWmag0k4iZy3gta+ZTT7x+QVFQGqUpHgzLOkWbljWIepn2t2n8me6T7e/NDXyf7vgJW5tEVWou/FXhwQb0w/339n9axNbzUqysFkd8izGKWjRN3ys48ZTx1qrHujjj3ctxHyALWQWTTyrb926g5Pjz2PxpAC6IjYJPRUN7xQj6FbDUGBz+6sXcAOpJfU1r8AnMrwWKxH43dDSqcfRd67RyaiGhS1AtgyBkzP80Y/onGrZBigsD87CvCRXfb8BdMWB6Liqo0V/ycxe43sIFSqNXv0UbMrM56kAXBcReBp6tn/w88aT3s6Xu8Dupfs+14I3xiBHVzVZwFSCXvMbZ3+450eytvfOjOCrUTlqh29z2FUarPPT4py/ZGI1ePfUKSiVOfbDRRp9jK4pl5vJzHjx6pRTVkYHasjpQV0oh/hj4lra0DRt5eJtDAxwDKsHNhpEg6HYUx7VGVCKc1e2hCT29oPOCoBiCI7YPXjdyqLnEdWpP1+3Ffjn6RiENNcV5Pd7k0DNXbOQPUmo1GO1kTAIThAs2+BSq1njq3NMXcPJnsiPLhhzx6rQTBTuz3UdPFRmzs8EEbLbfKDkCZlzI/WyhXEJaZJaHA41aEU1CB7wGYZZbzRKfYr4QT17NfUn/0kZMdLOaYRDeXNms2NhnScjsVjnCjQAM9YQasPx6go/AY+lu/cIbcxkUcpYZpReXMyiteZKH6K7BpkPTzpaVa+II6q93I7KP4v6sAU3KsiNz+jus++BTiIOf3PsmHSElh+mBmfKb07FO/4ftJ+U0bppH7l2ak5mf7MVna1z8NTo1zxKoJyhChvJ0tWfrAge49fHi0+IKoppzz2zDGwBn9aND4+RW6rM6GMZj+sAOcwtCWnNDvePlyNqGVwPmSUyUEYDaNM++yvlL17yMlkOEBv0bjuLo3cxlfJRfi4XmEn0eyp6W21L/LrrIwsvz96Uv5QqYaIi01PP36PSiJMG45OOiYtjcSrbzmSJYMvXrEXuwN0KLLnlWbH4+LBtQ4w43Hu5sbg9tUBT+CPi8Zfbje/QrIfrK1yWJoBOBB+Exi/9DCUDAF7mTWO1kvKYuXaC2zAFisNlOILHpwxbgoXBnTBBe8HruJ48b3LWcI1q2haRcxd9RgU2QlOmARtfjjwXAKvGwQ8yvO3gbhLkskTFkJRR2Jhtk33nUYfyTW7DcOd6E2mE2v2hHJsBr1Czb7llma9PCf14biu/uwn0OzhBUu3fWRnL1Ox8ghMxP0/9AtVjVPxcAcAVI8y47mU59F45TBsBOhmsGMhC6C2WlBQTuNOqKESDkR1zT4vGeoEcM2HSaI7da9wcOnnWfVgAFg3E0g3g+wwrHPgRBFlm6VBEODp4BHhsaRi8kAZGLoixaPlvSd4AQureHTKbXfJgmMP+h4nuNwH3NLx2V9ODbi+23ASzR6f4iBnwr628fz+wY6jyB6bYtBxkrFDAScag82k5nETlN7NaDy+83r2RPvskbRaY3j4z5jGTtgYVwILtluafZ8BzV7xZcRuabsMz+ogzf684NEupE3RNWO0EKLtRT5scoeGurMdP3oLX8ggt2xIPj+yJlqz25aULaxK8XAgLmE0R41X8dDBakXvngggEhKy7wvIvgU43H6HG4KIX98esPdRgD3SVB6bM3MrZttPeKJ69ssl+7l9dpS5NQTEBxG8v1KEbsr8ZXb4NDwbrkWZ8R49L5xXI6WdYlrAiUSwzxEJRaprdoiHsqfDJVanFJCJAZ1C8gh4sIBMjv0x2SEAlCnE6bRaproW1WaB8yQAsWj+MyLjBwZ71PghHj3xSsl0crvgzsAjPcxn31/618cB2w6rzTHH/Yh2PF8ZeUHwfRTDNJA0OlwOzODBROESyryw9BxwmO137hZ0+0ADWGiczxIaaYLtxJGancZto9pC+hPi3mjEZHcu3FZk4qGEpqpT83lI0myhzpQtYLH6pmku8P+KZZj2G94g4HdovLvu4ZUb1X32sWiWHbrLPywSC0ZwAQHZQXoV22BHHlTq/N1U6WYDYvbMVkO1PTdJqgyFzXovEubbhDU7jcMB00eI/5JMZM0O0QFCHqTZ5x65DnsAEaLJvoOuNCB/8eO2tmpvmVA6VEJq0cNY5fKErRLR1xJKX63plf2XvQt5O4+P2PZOpfNpsCGF8CDzQKa2N3Bt1x7Yg/I13RWBh1jQwulIzT4RA+fNmrXwJ1PxikIhWx2HYrwWnqFhqVJivP0DU3k5R7+G1aKOKGoR1d+rdcfiIM1eNiQNA2VZIisAZ0iMtxkN2g5hgSukwispsu43Ono0a2j4QBpvrmpUgzlVz+7I2eyBLKZn8tnBzojUu3jxNdlJs5M0Tw+qZ99h1xpWqG5zbPPoeoCTDreLOa4OOAQWXXovi2jsm7tvVAxzew43f+/Q/Qn38T0I3pumKqB4jAtqiAHs9z52Yatml763tcB4orc1nfhhmp1e2hKHlKEysMyil4FHeAzZ1+99fAHp83E7FV+GzEebKwZ4qpq7VYEcoTg3A9OmppPNrmU1hXhPefhamN6dn4rseFGupE45rNnhlMMq/wGtzV1vX/skZ0jxUwQG+va/9ODJjMcheeynw8z4bJuKbEWBmcdItXRm38PNos8JqIwi42AnwHWXjZEOrBPIHNyBfg/Q6SiRuL90zm2aHH0xcFzChu/7cfMgvpFs+8QFP8R72Oro4mymm33OJ54cVPUmXbHIwgk+YRKey45HGSpoVHOkZk/EdHnveEunUc9HoLpmrwA8q60FYy8MsNUWpmiqJs8or+xom17kLqKG9Gx+/EZmv8tGZ0Aj17OAQMnvc7vKgZfBzXCapPiSV/AjHoD8jdimkXKze5XCPLQPGDIcTP34rGSckRT67Ppxu53H1P+o39+L3MTtmEN6UB9HQqdNPG+RaUOzMF/0eJUfOkThEtQS88BO2ekmF+azPt8Vx1M+AfQk2KqJ5wrhQQM2Gzwy75kBd7HgZRxJ9k7wHz2FAvnf6nrv1IBmP1DVlED/kEEi4KmnLb9DbSJ9WOR42HMaVRQHeiM7UWr6zFmL5qM+/aKl8HTwUbJUsk05Z/eXHCSspG+pda/kuYpACdx8VtZQlfDmZ93l6G5c9mYGZYfbTh0A0GwpN0M3AO8Trdp17i9luazD4yEuOYp5qGZfu1Y55qyswI5Cu8xMtnnLRb3etgOi49M1W5bfyY/Mref1NM8cErXqFJrxR5L90gDNfsjLKAefg2EVYbRXxdr4WWQanCt4sxXZ+rOS4WNe/b+NS6wECbYXrR6CERxGdpTLtXbRfNMtXRHoceRnC9lT7SVCeh5K9lyzy36ydKJVjcdngBgaC3u6iliMDjo55OoHa2Totl9wZJfJN56a7XabezwaP6Z2s2naJP8qotUuaiR1e2Q/3+2o3igVIdfqr6zCuqwvBbfHZzjKfNfY5hGsR8cX4XPOkNFhAbpn8/OYdz6Pt6PaZjHZIym/yday0nykOwEeodn5yNKJ2ZHS2GUItvR6BXeizfn/HqbZp+K7nlSgxxmMSOLgYYODZhtOHpVcCFXT8zBXvWUiJGiBf6PCITcDmPEFuvMIHKTZG6O1msTUPVco9hDkHbz9TGc8UljqOmstaepK0REWbsJ+hfF+WGTcN7fUEr0LswXFrk4Psi9e723bvg/0C1VdJ1mzH+qz40jWhIfMXmGnZbLqt8VYPIb08jnzSmXInlhkSZIlOl2VNEWPnu2EhY0n3I7scOXrM2QAFMoMnK9MS/jsBS/jxsiuK7YqoJOW1k39w6reLhYZ1LJ0wnU9R1jSMIVwszodCx9nXbMrUC79zoEhEjjmn8n+vBBDyBR1QJBdmH+rM/GoqXB7lU5tvRys2YMopQzM62j2+fYg1ywH346UPvXWiqIfa6ZOjnTslGky+Bk63Mcga90Pukx6Q1CKtiglWyomWee4qkukdUCVQ7FmvzEzHpq9IFvHR2CPsrb5YZr9cpGh9AdcR7ABM83wSVPS923zZUF/P6kD/UeY1EL/IJ/daW4heyMRppsnLyETTbY6lu+BdNQYRuoMJ6TZi1vtbcNIX/YmXigJlG4W1jQX7hottwBP6yDNHoim233vvZJVkYLOZKNL6TyY4o7v15B+mweZVSt8qPzK5ynW7Lfns1fU7KqReSlAs1f32S8Y20t/RRxGdlvcrXzSPBVjh5Spbi8ANaWXguVkv1tmU9W8Heqzc3afLfgk7cD5prmWRG4dP8s0GfwMaHbmYcvqd1V5+xYGKl2VupfYxmVw/NAZuTZ7VZXPg0f2Z5EdCqHi7WCPsu1Rbk2zw1ckvfkRTXfquu50QKvarOOBLQrP7PqysDn2Dnhr1eh4rFpAozDmAQO8llwGQ+FDxsbCVj6UcWg9eybuttzuO25wpG5SfYdU4WnNHj5vagbh2+e2CWUwX9WzOxyuiCjFC/Vy0IE43DmXXGPCEYUpviufp1Wo2auz46JRPRofm9Q6pRRuzGeXdxBzMqYWfhtw5b9z49evmXQcfxlbdPTKHGbK6/KsWlUBeyrfEZo7b7QOTzW3y3xzWSkQUao84y6vV4JmPyhOwAE6qUdIW2L3kO2J3kLD9IbUCOKwrnNr9exyIEyWaiEMmn9ftNsyd5wRCbqIV1i/nJeDNPsf57NXvB2jVboBA1TQTQXouspwfBvzkGVLbPGmOZC7wms6Vv6MZR9W9cYM12wHqfIazcmqwglevSY7FJb71pDNnOJGYUOxHcir3lTDuRy7GoIZ0LorBGNdSjhXYGXMpss4wzPJKpWlCM9vQWR32Mj5pw1bJtArnEV1zV7KZz9MTl4mziq7fNHeVgV9tUiWrUyszF0pvPY2S2eN7PZaSost7c3LITSbNOKxH1FLNXplLacTroVPhhAGHcfpODGc3LQhQb2UmyF2/KboHjSqWrYsGhYcZnUvu8dDWqtnt7+vehmlB7WN/zfId6O4xLiRJw6GoAtgxCzIkXwjwdnTLYdwu4eQfbqZIfUTggto0X46GFvaJZ4MMMZuyQqC8Fo9q7lUbfYJ2/QDVYUxRhudQ6KD01I5FIVSMX5unc5W8+tSjECzUzRMIQbHgAUtYCOEug5URrwexZdxrrl3BHQtvZqrGFeA0Dvk3Li7OxpD+Il8dZ/6rASW8RbjfhYWrcysbxHF/uCGDrB68rKrzf4+5G0UdsKCC3GAqLpUwA89I9nvNrtSXDv6H/xCn8c0AJX0/DpYEphe8sGPmRyexk4mZE2YdjfkLsZj27Z7q3oRa8rdgIBgBDrSWOjilZKrC1tATJStQFmH86Fo9FMeJZFSLWwBdUEW5lQNWrgC/MRDgrQsyhRcUuMTOnZb2DBbfGopLNqQAk8St43b7LVFG7+VXUb2+vcBdu/Ro7heEObn1OwwG25Kszuf3PO53yXN+dknjqCDTRqD5gNCERzeYxPWRLTsRdsw/pmt007nddE5reDLDuN/MGf1rdixD3I91w0ZBRmTdPvQu06B+uLZegSfdRyo2Z3MHaQTd/DfSOft6Y8gxiKrEU5xOBlPB/ZIrRn3BrRi5qkOkFXgFdUWwVyilFG3AmlXJruzw477jLcbI3ssFp+NOmvYzMdBkCNPh6WkKdz+NlZ/1Vhvm0kygoNC4ltzRTre9qhDItLnbRbvw6HdGww8J5UWPMeGf716uL+0zKtub492WSk5oNlfbojsjcqaHXZZ2eDurfnssC23vXoZZ0qpYL0WhEbc3172Rsdo9goINhyo6S5Hey/624tGZyt5tw5+BIwP0+xfglFR2jSU9Zvy2QdVhT7eXlnxAJ/9psie8RB8u5EWD+f9VWO9eetXIt088UUlnCQLNMz4wzT7F6DwZVjtgqE8rwvVo/GQdqXJfmOavWhY06y4HnMkep+TVZ0BciNhjLPsYlsFOzR7NcCMv2DNXiR5ux81u4w/Z966GlSPxlfT7DcVjc8KfDzfbhdFva9pFNeTaHYUlwvW7AXR+HnwMRpvle8GdnmoHo230mnZt3d7Pvv9foe7eLCcaxrF9SSa/cBo/JcAPvv+6jqqett4XTPczucBTK8F0t7ps5duFbsTt+azJ8eX/j9Os1+2z17QNt4x13z2+WwY3FFF68DbUsV4Fdih2Z0oOH70zdvT7EfXusJn/7M0e3zNPnvHFi/L1/W81iGiSbUbmxWD+Qz/ahMPPzSOfD6NlbqZhLHMkCmtvOXExob8a1ktPd2IJmHUchLfms0bszedVZWAjXjG0L9Y0Orn2cRxiXT8Wb5qsOWNyjG1/zqkanYT0OwX+6IPQSaa+cM/FF9Vz34K1NF46giTvy7fFs3Uj0Qz9ql5X9ToeO+qdMsoi2XqqR5CURDLhuNR/stOGiSN0O4y8zpeENNB8lTmqpeyn03N9kDV3E6wNSF6TMlZnDz1Xu9fg5TXceNr+wX/028Nw8u7OAN+u80K9dv0nnZvZW7bFGY7YXpHgWebbfuurdpUfY7Gd2KVSbSgCrIMpHtb/dl5TKnjAGWyksoXjjoav9YBHP4udXhyOGI3BuuoE7PaHfIstXT/OChPWH88sCB1AwwgUJSwg4WT8abE0w6MBNKl1IOBehhRp3EwsU0b0sJOQy57GlKXXsojYjYFORE4PfZexb3zyjFH/IRPYlE7xoHbVFdDIsIeDF7z3ksfovEtf5mN5QR9+6R9AolxQci292ZdAiaTntqJOhp/QSij2TlPt5ok3ndUSu//0l3lrW1TsXhu5YQJxD33svdpD7dDZFc6XFC3IlCTjjJR/MKzEYl0MAdGw+dVZIfdYJEkMdvCJDZSBQ+OkjjPssWn3PCOcVw2wamrEG83eZtJZ0rX1zJhhsiZ9Bf6Pjei8Va0ll9lV7/l2SQpG7oz3OZNmfF4K3s1e9gs7NL7x0Xjf1y5Zs+r3qBp6T58ynIJ/52aT2EtWc7g5YgyiXIrYhDRnqk2wjany8slAkiJjUFvHIV7+aS0rWItKB3TED+qt+47UZ8aY/rNkJQz9QPi/j9ARulgHHOtQSQugqWMZTahvpOucgV4N1gbPIfzqBcJ62RpqGxkEt3ZcoiMFj1ZgDnMhkN6W10ssoLGkygQRWP8oHz9WT47D7R9oSij2XMegH1Et0i8UG0dCJ4Qd8jGBiFCmlZdBjjBNS3Cv9LJzTWyQwpM2NYmAYFF6gFD405oTxX+hbh4a1hJOm9YlgVVTbkB8JOT3aL9Usf3Ha4GxsyTbM1a/eayj6+0nlESV2THEXWtA58HG/gJ919cYhWF/ACIktJlwL0tsk8KAnQo2PxK9gDl68/S7GzRloCB4mu1WpaONBvW8wNljafJt75uDujEb1Bhvp7zcdy587wyMyWNDmXpsWSl39/7rgilNLt+XROloSOl2VUkQhEZROTvdjfoBcGCOAeuLeCwk1jHWuYASAmiQbOHpNA5wQhWKTKC5wPqwCDsAIdoqiJidMJgQGk8iZ/YnkVGRi09qIcvwR7hDuEYCLt9T2l4+W3FU9fmaoO4YYxE0/M7znJkT9U23vf4sOtYUJaTbYCF0FVTRkOqiTVYq5FMcdjmreWN36/ZIf0LcnFadlH5uiB8qc9u3TVN+xUfm0xU2TU5EYdJkShfvDBfrCbs2pxusFRtpzHrLVbu67sJXoxMGjSi0QJnCs9bRrPnZrzVZPX4wD479DiRHbJgyHoWK5aZTMjLh4QD2NYGo7lMYDOoflAzwhNJ5U/slIjcyw0pJUKPdyJQGNhfetT0EnLNnjRNizqTQirQ2B1Bi46bAxtKDrlNKa8QzkqXqaA0Ow1In0BuHIKezt2wDnPUHjy9B90A/1i9NWPT1WJS0C2ilUyKhFtX9PYe4pLwpdH4VcEk6kBsdiehB8JjZ5Rn5gvMUlzQUGepGLKqdXPlCPCoGI7qcAx2FEvVMpp9+QhwxHQG2QX2W086SE4Jr0ecEbB1L15s1+1BPf+XzRkbYp2kDnx2vlzchNLs7kBMaYyzlBx/7Xun4pUuX0Cv90BiEJpy8tiBR5nH6HmsfPbXN8NpcuIhSZnI6BITq2NZmBk1ZjiGG+K02I3kI8f0SdGru8DqJmv98+D+j9LsxTCCWrNvh2U3IxRaLsC5tqQyi0vAHGv2DsezoByJRESomCqT2AtlTNltxtYJ7VgiNlJGsy8dtw6I1Cb11vXgc6vq8gdhQizxU/ouRjw0NY/aQRJOLoSL0gLzni+XL4uNbrqLbzqop6JfEBrvZBuouUy8G62mMLnHjQ7fQ9LwCVECcbRAiTtIjCkdl58Ajw4A5itdwj479m4LO5692Vqz/4vzWBHk0Ue4NIz/jj9C7PeBjcVYxAv7MX/j1365Mc1+bKOazr14vJoA3Zf67C1btWFwibGdTOXohC5/ZGVNZJ/PmPQo/mzGw5zHgdc1ux5Rm/xM8JIPsB9VfHZSk0ut2OyqctDhkDbfXz4gAExsNuMd9s+JpspWV6TEMjY5uFoezvuAWQtqYktX6/l3UDivw5/DO6DjdrXsyshske6Cbw4bpXRcvuuOCfGB6+VjOLhSPKqWrZIPBvpFwnrCxK/x+9KK0uDKu2MxuK169uBozZ6/xKvAl7ag61MMmsujZq/1HE2g0KDyUJ5Dx3do+Dy48OBLTHMwn1uUHb+LGQ7kKTkBsPu8ym+7G1Wi8YS38QSa3UwnyzuCXl+mt2WaqX5yuEaQDJNvEAIicaAccSvejDU7Wf1vTDDcUO9ZWpBO1Kqmp3MZZpTfBDIiNqTzHdsnDcc39aC2HI0nEwa3TOPlc20+CxOLNDuKl+1bFvv7IDuECLe+CfLMoR6bCXjKUbe9bs+fokwarqp2uBWkBT57MfA2ap99K/rCpaokY6AYGz/yEDBcDuHb5mNOQTmCL009B3pRsQaaNPpjbgfjIa/p+z2optkZQ12TpmEtlJm95BHcYjw0Zc7gOp7I214iZc1O20Gz4+dfEkvUwI0D/XlteKaPIHp3tJOwDeKl0vojik5SOJ9h9/lxcE7ADoXcDfLRm9DnOPBEO0HAnX4wMBrUYQBpcZt4hWOLNeHWWtAltWavjLL17Il6MEqzS0qOL7wMTMFSKK8coBApRwWzQ+XeTkcp1KZraZ9dbb/y5Pegks+u0H/NB+hQyJ3pRqbbq3tUJaBHTQrNOyu0p4HbNtttOPpew7dNj+zxmW0S540fU9s07ZSN+dG9kopDOkIjHYDi7aSTtd3GtN3WwiseeLJhPGSJG7hhSJdmBVO+IDkakK/jp9OeG3YaqT1sJHccIoT7yauwTe4paPj/yf13tX4LHF2TWYy527ypAF2Rz+5nRY0LiewnkKJfgy/12XXiU8maHdaxjRJLihN0fF6IzAJAPRRKaFtYqhaMX1dSZRIf3RpARmjNbrnNl3KqvVCz44wf4nzzvHOZgqGbqcA/1uNw8G/eqY2qoeUv6ojWsVpTXJ5hKULMrXzYDms5JXWuBEMtkJ2IidaxGv90ljTKTz7n4Wt5Ks/DqVflR9H/DD2Bh7tBdmzskC2QWwCf4Yvm//RkEXZqduPt29usJfGZ6Tu9CpRoQbdTRCpclWYPT0F22JJlNDsejOrcwZod+prZ4je1z84NE2H74vHCEuYyE1NrVFjN6onTKFM6o25XuP37ZZv2fSjU7JBU+/OD4mJK2S2E76eJgx0BiKbP47N3Qhq9c0e5hRlV0HJkiZ0+e9J21YAG9r2qw7gOjAqcGyikguayHaisqxFvJyE77Nwymh2PTqloHpiup1uOjlg2Os0l2ZWTynpuQntAs7MKl68gOmv2OY4UkZuvTdh9KNTsONcHVbiOt+eH1wqy+wSpT46EvNt+OzI0lQP0CRBmKiRRjJ2afb1lbikj7zIwKtbsq76HWwEFVpCq/IJwqM+eZ19gQDkWi/PW2BbN8UO/44DeXR7fyYvHMUWQuqTZVbsUSEqomQfdqA0HhjpyRRcbTjgwTXYy8ZOumo5DW+1FGZ/d250flKIHi/LF10rKKslzAaLxs2ZnGDvcz/3SbgPQ7EtnYwOPopk6UT+cPMd6wI+rQFLgsw9f7RJm/F678JJwsM++LhFRXIr5QLFngvmTvgetNx0ozjzx9xtRLm9BBzUDZcOFqs+1UHmN8QBSlurZO6ZwqeBKHKHgXZBEKBiLq48j737j/VehI19XAjg9ZamrMR9HBVGoJaDZt5OdWx6cAjRsyImRD6C0BYXR+GWyoV0A2XWV5xVgeAonUyngAvyAd+PabjC171yT9fgwzdLQb8g0NBqdVDWxMYaUtsVJJ0pcjqngRmmSpqHK7xyn44afZqrIOQnm9kPuzr+oATGzT7xv5uu+fPy7U7OfAPNdgxP0dCffHB0d4LccxZbOOFZptGSeTctS21tDvN1IL2tY47/csJ/PMaQ/jCI/HvuhOqTlRGHk8yaG5VNXHcxY+qgWrbBCakzc6IdUYKw4mbru5jikKxS1jS8G3E/Tl78km7r4V5JFyxf6WS7DLG9BX/8a/87mljPDxMYf5ReTlsT9SGn8m/9hQX6gD390RHoOUmIHXqZ/8ZhXh8W56GMY3imcTGj2YreWbX2S27/mkKiv2zVEZRQpApy1QNFBs/9uP/uU2OWznwQ7fXZo9vUVyj7Dr8sVU/gB2hSUCZVR1nDavIOjrDbuGIWXpQYwpi4JS8Db02DbQWfj4EpN61717KO+hRyP8NvU3z9k1YP9bFrCWwgxXT9mDpT+E9Szi6btQov1UteeJpiYRMmda7+n2cTFr+vSsmSURN7996lre4nNi1njufhRH/V3b7bd+xfbNRd6Af7u7Ht3gG86x6dvL7CTid2moV1pwZ1tqhX3OPbqsIwBDRl7As1OGZUKopb0DvLOZfQmvqjZEbhe1AwEmr0gCHNV2BqNPxVau3x2aPZ1R64F6U8sysAEq0EO2zRtCxNlJNFSASQBIyU1ski9e+UGJk1hc3sK3VCZQU0PR56rG0dTCMXzUg7fNFpgcjDyvKjR5VIsBxAUWr53MInT4cyjOA4hFLZKwODotvFE9hNCtyQ7G4pjXMV4wBspMuQjMdVTJ6oDKEYL4n1RJIXS8sHoXSCby6KO9iVAppqePAvOqtkdc0d/9inKaZKlk0nMDQig2ekF+9DU9ozYB8Wr+g/nAy5BxKLAQBhQE4YZN8AgfpKEAL3X7gCvkA3+lDQ70ZnEAnawW9R6WL+5LoVtaUf6Zc3uUfYAasPBKt8xt/qZBmTUkZrdgnZ1dQ/g4P37O//yl/7Bv0vTgS1cz13Y3igOg/dxPE7jCVaGSeAFSRLwDt2n4KnbxR/NvNP+9Bc84dtz795t212471jz6Aa9Lp1KnSeKFYZBmmA2SB5Godf1Ii8IPL4KfTTMn6JoGHhrIt0YXfoTZLSS/XK8rgfOBMM3odcLTwThfxzZ/dDD07SbhfJLxmGUBoHZLLSCjsBZfXY52HTNl1j10zdd0rnMOqIm6WPnB0foTeLyRIt8X7yCrffiiefgSjmktVVnh5EK3yiAujnZOWufelfOQowbs3YeF/ZIs9OA4sRp7OFDstAq2R9zmZQ78t13C3x26RQOBCYtcpv3gvqDzBvW81vDWOb/Lg/NqrdZAw69ilv8+1Z4zrOCpKp7UbUuMTXHLTGwEXRMmZZ4u0BJpRSKjhLmldGbjXFPjOqa3Q/ei5+SQmeXZocnHaTpyHVBOPhN0OzQqIkwX/LxlaSD1wFGQlH70mpJOHUOcTyIY2i5EbmBiXhcVmK1oocx/vCgcs0+Is2e9yWmNhcRaXZNdtbsrnC5JgJF0aXGlgrP8cTrwk/YlkYWMmC/Zp+85GeosY4+NKRww7LF5ryQ1oRahLtJCekDsq+CCZVB4Qphk7E1LjAIYcwKm+y50hVdB6G6zw46lRUPVnuHZg9UNF4aFng7Is3epc6344lm55ziavSYSSk0Fy/km0Y8k8ODTU+2uIJeA8ZiivmWUhus16WgTHGX8Nm1jeRh1wjHn2iyA/o6cXMKqt/iBxT57DBYbymec0Jwp0sz86lC4HfCsKKAwrR2OUMD1uMRjhtK1uS5qEqA8S7Mr2hwU12zwzQpirfkANm3WyVurnJJW7sGmfHGFASORJtF24xialTdyuTjlhZQ1NR4chKkIcHHdawcIU122N6Tdc1+L1zOHkLHgWZfmvGByKQJj42W0r5TlSaUMvQJtxvGkbm115ScCnPvuwPZz+lyXTPm3Byuabu6Gvx3wPK9O65u+T4pKXOgcatXti7HcwrINpXf8iJDdaT9fpzfv2F14r7ys1qvKJmzt7UzYZ3qDtNqWfSRfmw1OrFPkocrjPHTj+P+jjriHYDPXjEEAUKUJzvn3f2MHqW/Zrw1wUoJFnvUUzdcCgE5tinDOsz32HGcDnfa37QpQFKljp2+lFyDTrl1sZS797JmX43SGeAuW+ZKs49GJCoyTfY+nHuKzGGSA3SNwfZb7ImXva8eZC/7aG4DxupxFOvsB+pwAXihb5XSd6fDfGY5w4yJ3uxl263NbYAZ366m2Z3Jk9kOON4IPZpGrtl2Iy6EY7NHrXqFrfjmu1QTbE5J9cco5Sl1ddXKyEnbTWG60bzx3Dbb5uv937j0EIWYDNXQJJO2pfO+Fw5UsA66Ij1ZEiodUCns9NmnS1JDdroGfHYAyhRknzV87qeryJx3HhgSbWFUqWv13dSixIN8HfCkNcOoBG347DAb1CqcxV/T7JRQYAETIqMQH87j06GxLhALXg/zYJu5I4ui8c70mrr1nAIrbVTIdWDmU/o2wAbh5VcR3mg4ka2T1U69Si8IVmy1ytalG5hKaqCnsaDSxH1JpxSyo3rfsSma5oicG5Q7ctkVnsgSpZoCmwyhlBphKUzfx8YdVUxTJRRMfhznaTKko1W4oY/92Yvx76pzbRH8XdllXWFyVm85xH1lFDhQlW/gdIt6NtM6MNIHE1VVLxjJyfU5QwCe4oCfJTd9yQ13BTwjZjRH47GDTXoeittubfjsqg4v0ZodEiEQdwa9KtqCaue3tvr6NDT/H4/KPrjlh6kmfOCN8yTv54K0OlEWEG+Ap1E1oxfAnpV8dmgX4Q4t4nXceCPdGzxYtBCUoYVQ6kRshwVBd8bZX7+rBv7tuBVPWRAQG7JWw++RyrE6VtQULhmtFB9+MzyucIbJwY4ma6rSsOyqZK+A/tJa34QFijcHScYjSNpG443ullgJzS7pBjyfEnMFNAqOIrvS0Vgm3qMIW9M144bdH2M8rqV/LUPQWIUJPNLsJAjuJxElCsTeq2g83iFH23MzHiu5lq4DcZtmAbVVueMNN1EYja9RClbfm3IcBvCyiFJR6DWngrSs1nP8kNEIhwSzO7QOcR1gPS5HcS0BqjxmSxRaI2jMMMeVPNDUsEjh4/E6lLeUyK6SmBCBiezsbxp/kSDASVWJVmWYtlV1RYlozvoqf2Ur05UJbpUokWOesZ7d/9AEfgkiuUIzcDhtaC6oiKraFqJ29TpZER0JNyfV+LJq6IBG439cXa99IIJBQkPdfKqGEiDBALhkzc+WPjsbDQCT3TdtetCTBfjvUKZyM7Uic+sIjvDZdcDvNDizXrtkOFEUZgPV3vn+9d4NgthxfuVpVg6F0bAcx0kD9/7VVscW5n2yliCyIkaseEuDetHzKzXgXhNJ75Vu6FLlDkokyzTVgkx2UJJaTmSqQLIOnD03USKhbJTw05kxoI+p+LJBmg7WvG7phMl9Fc0Ok/Wsmn27zB5OwtAbpaNJqC411l19/Yx//VHQ63K1bBwoIWd5GT83aY2TcNkRxnCiZPhNzxD8SaieS+NZHakxG4dpEvG+xnCoyRXpt+8k9KvTAvHP3NJt+rbVdxrTE2v2PGz7p0Ja/YlHo5doBO/vHkpG4nkhvsc+xWa3F6AcxG2Cn1AVzch7hxG3hP00Cv3WMfKjYj077E9tZQ7B4V923loDPO9Aswy48IDspMBk6tqUU7NpzqDZ9dAw0FZp4y5vsq/bhFGdNM1Kzj+ZD+jme5SkDqig2XF9v0GzH4CvCufsQ+8kaThrbEJ2nGGWDNobyY0VzKawB7a7+x9+l9jYrSleYCg8JWnc0UL8GMDBXtmNxXhfkp19w+WYqSOib6pad3NHEBx5edX2W+M1rzWSphjBIFD1zyRq6ABWWzUV5RamnHQagIMKC2GI83DlUzkcoNlVku4y2OWzXykKffbQK9Msq8Y2SCk7vh8mSQbttlL2peElhMj3HZlnbjweMJy7FWw5kEnTO6QceEuyp2SYZ8oDb8BnDbhDlBtE0oKxOCNnXGl2HtbFyzW7PtxSs6P4ObAPiH4gObe2M8wqzbig2Ss2+sJ5yloOvmhqq/o2UBSNh511Mkvmz4VsNQyrZb05STLhj+cFbu+x5+J7yt/5dIa1kyTxZ2/ftrldx4OEzu60VJ8An52q1YCUcuAENIIbMGtTmy0wnhkNCncxo31vV9xbRMI8BIcJUF+pyEwpYutVa/Y7HB2MJwPB1U08rRcdwS6F6pod0q4sg3f67NcJakG3T87jRdwI2Wv7RAGcVO08ygGKWSlC3yT2JqqCXVGYqMtJisCfCc0wieAn/N2hEBz7uxRgjsh6Z5Exu1e6BWtzzQ4BAZsAe7oqI+eM+nzTunKo7rOPcjFUjFP67JeA3v4mFtSi/zbu95ZE9DEAs1SctyTAPTt2HN9m5Uwx+chx4F6TAU/17J4fgz62xWa4z8Of8zpwfhB3fOwO2WL0wDCfAvVKD1v36iJgzpM1kBCpcMz3vh9ShK+CNDpIs5e1HG7QZ98bJ0zMs/ZQrPHVAAnfK/js3ICER0W22WIHTRms8qDMFSjERkZgDjDZAKkYHJqDAlb4zqUNZjxTFBuRxmdrnpqKECbvOsN+KVTX7H7IFVZlsLMF3ZUCPvve2I/ROo/rWOM3AQZ4tczf1oSyeS1zJ30LU9tNh6zxUmGG6cDl4dNpw4FrBxPH8QYsF8bvru26E6UrOuHUdu8SX53aCFM1Kos1ZjZZMX7mcZgm8XNjpnJtlkN1zV4B/Tyu+BHyKhUgafYqcr7GtYNaxFUM7RtvUbTef3ZZYDJKhmTI5byh04zk28r5al3j16+1mZOhumavAGj27Wa8vE4NeOoWdDUuFZppMLa3JjY4BOlmZtTfgd+j2a8TJ8hBV+M6oDv4gOy6qvx45PXsvxHn1uy35LPPg+tsQfe708NcL+5OSPbRsqXrb8MBmr182YluKxo/K/LZnaxCQ+WvQ831Q3FKze6M+7/bLIRmr3g7ka2b5xZjfGP17EU56Lp1C7rbwinJfgGAZi/bREajQgs6mPG35LPLfCThHaDK01uyZP5gnMFnvwBAs1dsG18hB92ttaCjnJh7cP4WdOeoj6mxBf+qB31Kn/0CcFALugpt429K0/X2N0SeBecm+9vJ+nPVKIMb0+x+ZbKn9lT1xyvGbZnx0nILAqpOWndxvSmA7IFU4Hl8fwhP05jhW94572Lgb06TNCFhLMxnNPSu+tuE3oMPrqcY+eaG1XE6Dn1Zs47T+nQUx7FalMTDkh31o+Y72APf/OdIGt6uouyaledvXzTTPq5xHOHL71tOlCTJmC/Hsfq+Q5lIysJyLMOKkxBTUYKDboUVxXnuEjrD5HnHdjmsMXWjLPeXmmazIJV0jZvCfEZt29tTGtT2LqAh8O4C98597P7VfXr//v5EY7303O89N+h6QS/w8P2EpfTp8Ui4H/Cuf7egF+gJ9y8+3SfYZts02/i3bRp69yNM83WALdqmS5uZ9uClbdOs+qgvmxrycse7swBmgxDEEXFP3zoViT65aJpNNcWXspzSqz99Xu5psCjOXoKvBXbGEfC98aFuCPmHNl6Yi5c9H9qkEqq1lD4QrVqiXAYoxcQFgQo+/Rfg8ya8RC2u0mO3GnzTHFD+IHUuRfU14PTLC1PcVPh8tTma7mAwsN2BykkU4N+17zCZ/9NSOmP+l/+ub7P+Pwg8zxvp/z0T+O8+epDq52ttuI46DHcZMDwoIa2HVn8KaqJtLpQuwh+rMY2u570f9vdEP6Oe+9/pu2ff9bp08N4oGHqTsU+I+PsDnCwLxs4kGYXjbIQjoMRmnscTuiRrZOdzq42WNWOPwveffd/SV7YNjtPSU5ju6InPcAzJB1Tfm+4NsObElIS+0HKQskLWkho3AMqYg0/H6rRWf7QAi/CF/84zraVNWv2+pRduTVdaDVwyyeXHwTtfYU6eAtdynTUAqzYpatQ4Ky6GYgcMB1+jRo0KkG9fQHfjy8ZWq1Gjxi5wSxl57tZxv+oGOTVqXAa+ehjjm0Vdc1njd+E0CrtTu9Nl8a0me43fgxOl26tYS1jjeNRVEzUqYl6XmetEbUrVqHEwlsZJLf9q1Lg6sHdRcuRpI99ufqTSPH29hV+r8Ro1CkC8M8oyJefokVxtPZ+83iIf1b9GjRq3jtqxqFHjj0Gj8f8DWQSPXh31zx4AAAAASUVORK5CYII=;" vertex="1" parent="1">
          <mxGeometry x="380" y="313" width="539.96" height="128" as="geometry" />
        </mxCell>
        <mxCell id="lG2mJXNDVjrHXC9hDr_K-8" value="" style="rounded=1;whiteSpace=wrap;html=1;fontSize=12;fillColor=#d8b1d4;strokeColor=#80A6FF;perimeterSpacing=4;container=0;" vertex="1" parent="1">
          <mxGeometry x="690" y="595" width="250" height="205" as="geometry" />
        </mxCell>
        <mxCell id="lG2mJXNDVjrHXC9hDr_K-9" value="&lt;b&gt;СУБД&lt;br&gt;&lt;/b&gt;" style="text;html=1;align=center;verticalAlign=middle;resizable=0;points=[];autosize=1;strokeColor=none;fillColor=none;container=0;" vertex="1" parent="1">
          <mxGeometry x="785" y="595" width="60" height="30" as="geometry" />
        </mxCell>
      </root>
    </mxGraphModel>
  </diagram>
</mxfile>
